<svg width="1440" height="438" viewBox="0 0 1440 438" fill="none" xmlns="http://www.w3.org/2000/svg">
<path d="M87 171H77C74.2386 171 72 173.239 72 176V186C72 188.761 74.2386 191 77 191H87C89.7614 191 92 188.761 92 186V176C92 173.239 89.7614 171 87 171Z" stroke="white" stroke-width="2" stroke-linecap="round" stroke-linejoin="round"/>
<path d="M86 180.37C86.1234 181.202 85.9812 182.052 85.5937 182.799C85.2062 183.546 84.5931 184.151 83.8416 184.53C83.0901 184.908 82.2384 185.039 81.4077 184.906C80.5771 184.772 79.8097 184.38 79.2148 183.785C78.6199 183.19 78.2277 182.423 78.094 181.592C77.9604 180.761 78.092 179.91 78.4703 179.158C78.8485 178.407 79.4541 177.794 80.2009 177.406C80.9477 177.019 81.7977 176.876 82.63 177C83.4789 177.126 84.2648 177.521 84.8716 178.128C85.4785 178.735 85.8741 179.521 86 180.37Z" stroke="white" stroke-width="2" stroke-linecap="round" stroke-linejoin="round"/>
<path d="M87.5 175.5H87.51" stroke="white" stroke-width="2" stroke-linecap="round" stroke-linejoin="round"/>
<path d="M156 171H153C151.674 171 150.402 171.527 149.465 172.464C148.527 173.402 148 174.674 148 176V179H145V183H148V191H152V183H155L156 179H152V176C152 175.735 152.105 175.48 152.293 175.293C152.48 175.105 152.735 175 153 175H156V171Z" stroke="white" stroke-width="2" stroke-linecap="round" stroke-linejoin="round"/>
<path d="M127 172C126.042 172.675 124.982 173.192 123.86 173.53C123.258 172.837 122.457 172.346 121.567 172.124C120.677 171.901 119.74 171.957 118.882 172.284C118.025 172.612 117.288 173.194 116.773 173.954C116.257 174.713 115.988 175.612 116 176.53V177.53C114.243 177.575 112.501 177.186 110.931 176.395C109.361 175.605 108.01 174.438 107 173C107 173 103 182 112 186C109.941 187.398 107.487 188.099 105 188C114 193 125 188 125 176.5C125 176.22 124.97 175.94 124.92 175.67C125.941 174.663 126.661 173.393 127 172Z" stroke="white" stroke-width="2" stroke-linecap="round" stroke-linejoin="round"/>
<g clip-path="url(#clip0_2_273)">
<path d="M87.465 135.434C84.0024 135.434 81.0297 134.702 78.547 133.238C76.0643 131.742 74.1533 129.677 72.814 127.042C71.4747 124.375 70.805 121.302 70.805 117.821C70.805 114.341 71.4747 111.267 72.814 108.6C74.1533 105.933 76.0643 103.852 78.547 102.356C81.0297 100.859 84.0024 100.111 87.465 100.111C91.581 100.111 94.9456 101.136 97.559 103.185C100.205 105.202 101.855 108.047 102.508 111.723H95.599C95.1744 109.869 94.2596 108.422 92.855 107.381C91.483 106.307 89.6536 105.771 87.367 105.771C84.1984 105.771 81.7157 106.844 79.919 108.991C78.1223 111.137 77.224 114.081 77.224 117.821C77.224 121.562 78.1223 124.505 79.919 126.652C81.7157 128.766 84.1984 129.823 87.367 129.823C89.6536 129.823 91.483 129.335 92.855 128.36C94.2596 127.351 95.1744 125.969 95.599 124.213H102.508C101.855 127.725 100.205 130.474 97.559 132.458C94.9456 134.442 91.581 135.434 87.465 135.434ZM115.312 135.434C113.221 135.434 111.506 135.109 110.167 134.458C108.828 133.775 107.831 132.88 107.178 131.775C106.525 130.669 106.198 129.449 106.198 128.116C106.198 125.871 107.08 124.05 108.844 122.651C110.608 121.253 113.254 120.553 116.782 120.553H122.956V119.968C122.956 118.309 122.482 117.09 121.535 116.309C120.588 115.528 119.412 115.138 118.007 115.138C116.733 115.138 115.622 115.447 114.675 116.065C113.728 116.65 113.14 117.529 112.911 118.7H106.786C106.949 116.943 107.537 115.414 108.55 114.113C109.595 112.812 110.935 111.82 112.568 111.137C114.201 110.422 116.031 110.064 118.056 110.064C121.519 110.064 124.246 110.926 126.239 112.65C128.232 114.374 129.228 116.813 129.228 119.968V134.848H123.887L123.299 130.945C122.58 132.246 121.568 133.32 120.261 134.165C118.987 135.011 117.337 135.434 115.312 135.434ZM116.733 130.555C118.53 130.555 119.918 129.97 120.898 128.799C121.911 127.628 122.548 126.18 122.809 124.456H117.468C115.802 124.456 114.61 124.766 113.891 125.383C113.172 125.969 112.813 126.701 112.813 127.579C112.813 128.522 113.172 129.254 113.891 129.774C114.61 130.295 115.557 130.555 116.733 130.555ZM144.278 135.434C142.122 135.434 140.227 135.092 138.594 134.409C136.961 133.694 135.654 132.718 134.674 131.482C133.694 130.246 133.106 128.815 132.91 127.189H139.231C139.427 128.132 139.95 128.945 140.799 129.628C141.681 130.279 142.808 130.604 144.18 130.604C145.552 130.604 146.549 130.327 147.169 129.774C147.822 129.221 148.149 128.587 148.149 127.872C148.149 126.831 147.692 126.132 146.777 125.774C145.862 125.383 144.589 125.009 142.955 124.652C141.91 124.424 140.848 124.147 139.77 123.822C138.692 123.497 137.696 123.09 136.781 122.603C135.899 122.082 135.18 121.432 134.625 120.651C134.07 119.838 133.792 118.846 133.792 117.675C133.792 115.528 134.641 113.723 136.34 112.26C138.071 110.796 140.489 110.064 143.592 110.064C146.467 110.064 148.754 110.731 150.452 112.064C152.184 113.398 153.212 115.236 153.539 117.577H147.61C147.251 115.789 145.895 114.894 143.543 114.894C142.367 114.894 141.452 115.122 140.799 115.577C140.178 116.032 139.868 116.602 139.868 117.285C139.868 118 140.342 118.569 141.289 118.992C142.236 119.415 143.494 119.805 145.062 120.163C146.761 120.553 148.312 120.993 149.717 121.48C151.154 121.936 152.298 122.635 153.147 123.578C153.996 124.489 154.421 125.806 154.421 127.53C154.454 129.026 154.062 130.376 153.245 131.58C152.428 132.783 151.252 133.726 149.717 134.409C148.182 135.092 146.369 135.434 144.278 135.434ZM169.061 134.848C166.513 134.848 164.471 134.23 162.936 132.994C161.4 131.758 160.633 129.563 160.633 126.408V115.87H156.468V110.65H160.633L161.368 104.161H166.905V110.65H173.471V115.87H166.905V126.457C166.905 127.628 167.15 128.441 167.64 128.896C168.162 129.319 169.044 129.53 170.286 129.53H173.324V134.848H169.061ZM186.255 135.434C184.164 135.434 182.449 135.109 181.11 134.458C179.77 133.775 178.774 132.88 178.121 131.775C177.467 130.669 177.141 129.449 177.141 128.116C177.141 125.871 178.023 124.05 179.787 122.651C181.551 121.253 184.197 120.553 187.725 120.553H193.899V119.968C193.899 118.309 193.425 117.09 192.478 116.309C191.53 115.528 190.354 115.138 188.95 115.138C187.676 115.138 186.565 115.447 185.618 116.065C184.67 116.65 184.082 117.529 183.854 118.7H177.729C177.892 116.943 178.48 115.414 179.493 114.113C180.538 112.812 181.877 111.82 183.511 111.137C185.144 110.422 186.973 110.064 188.999 110.064C192.461 110.064 195.189 110.926 197.182 112.65C199.174 114.374 200.171 116.813 200.171 119.968V134.848H194.83L194.242 130.945C193.523 132.246 192.51 133.32 191.204 134.165C189.93 135.011 188.28 135.434 186.255 135.434ZM187.676 130.555C189.472 130.555 190.861 129.97 191.841 128.799C192.853 127.628 193.49 126.18 193.752 124.456H188.411C186.745 124.456 185.552 124.766 184.834 125.383C184.115 125.969 183.756 126.701 183.756 127.579C183.756 128.522 184.115 129.254 184.834 129.774C185.552 130.295 186.5 130.555 187.676 130.555ZM209.69 134.848L202.585 110.65H208.808L213.021 128.067L217.921 110.65H224.879L229.779 128.067L234.042 110.65H240.265L233.111 134.848H226.594L221.4 116.748L216.206 134.848H209.69ZM250.377 135.434C248.287 135.434 246.572 135.109 245.232 134.458C243.894 133.775 242.897 132.88 242.243 131.775C241.591 130.669 241.263 129.449 241.263 128.116C241.263 125.871 242.145 124.05 243.909 122.651C245.673 121.253 248.319 120.553 251.847 120.553H258.021V119.968C258.021 118.309 257.548 117.09 256.6 116.309C255.654 115.528 254.478 115.138 253.072 115.138C251.798 115.138 250.688 115.447 249.74 116.065C248.794 116.65 248.206 117.529 247.976 118.7H241.851C242.015 116.943 242.603 115.414 243.615 114.113C244.661 112.812 246.001 111.82 247.633 111.137C249.267 110.422 251.097 110.064 253.121 110.064C256.585 110.064 259.312 110.926 261.304 112.65C263.298 114.374 264.293 116.813 264.293 119.968V134.848H258.952L258.364 130.945C257.646 132.246 256.634 133.32 255.326 134.165C254.052 135.011 252.403 135.434 250.377 135.434ZM251.798 130.555C253.596 130.555 254.983 129.97 255.963 128.799C256.977 127.628 257.614 126.18 257.874 124.456H252.533C250.867 124.456 249.676 124.766 248.956 125.383C248.238 125.969 247.878 126.701 247.878 127.579C247.878 128.522 248.238 129.254 248.956 129.774C249.676 130.295 250.622 130.555 251.798 130.555ZM271.523 145.582L277.158 133.238H275.688L266.231 110.65H273.042L279.853 127.676L286.958 110.65H293.622L278.187 145.582H271.523Z" fill="white"/>
</g>
<g clip-path="url(#clip1_2_273)">
<path d="M987.659 130C995.391 130 1001.66 123.732 1001.66 116C1001.66 108.268 995.391 102 987.659 102C979.927 102 973.659 108.268 973.659 116C973.659 123.732 979.927 130 987.659 130Z" fill="white"/>
<path d="M988.186 100C979.611 100 972.659 107.163 972.659 116C972.659 124.837 979.611 132 988.186 132C996.762 132 1003.71 124.837 1003.71 116C1003.71 107.163 996.762 100 988.186 100ZM992.996 116.148C992.996 113.493 990.907 111.34 988.33 111.34C985.753 111.34 983.664 113.492 983.664 116.148C983.664 118.803 985.753 120.956 988.33 120.956V123.704C984.281 123.704 980.998 120.321 980.998 116.148C980.998 111.975 984.28 108.592 988.33 108.592C992.38 108.592 995.663 111.975 995.663 116.148H992.996ZM997.496 116.148C997.496 110.932 993.392 106.704 988.33 106.704C983.268 106.704 979.165 110.932 979.165 116.148C979.165 121.364 983.268 125.592 988.33 125.592V128.74C981.581 128.74 976.109 123.102 976.109 116.148C976.109 109.193 981.581 103.556 988.33 103.556C995.079 103.556 1000.55 109.193 1000.55 116.148H997.496Z" fill="#F43E37"/>
</g>
<g clip-path="url(#clip2_2_273)">
<path fill-rule="evenodd" clip-rule="evenodd" d="M1101.37 127.736C1101.06 128.526 1100.34 129.638 1099.32 130.422C1098.73 130.875 1098.03 131.307 1097.07 131.593C1096.04 131.897 1094.77 132 1093.2 132H1078.8C1077.23 132 1075.96 131.897 1074.93 131.593C1073.97 131.307 1073.27 130.875 1072.68 130.422C1071.66 129.638 1070.94 128.526 1070.63 127.736C1070.01 126.144 1070 124.338 1070 123.2V108.8C1070 107.662 1070.01 105.856 1070.63 104.264C1070.94 103.474 1071.66 102.362 1072.68 101.578C1073.27 101.125 1073.97 100.693 1074.93 100.407C1075.96 100.103 1077.23 100 1078.8 100H1093.2C1094.77 100 1096.04 100.103 1097.07 100.407C1098.03 100.693 1098.73 101.126 1099.32 101.578C1100.34 102.362 1101.06 103.474 1101.37 104.264C1101.99 105.856 1102 107.662 1102 108.8V123.2C1102 124.338 1101.99 126.144 1101.37 127.736Z" fill="url(#paint0_linear_2_273)"/>
<path d="M1088.32 118.393C1087.84 117.887 1087 117.562 1086 117.562C1085.01 117.562 1084.16 117.887 1083.68 118.393C1083.43 118.658 1083.3 118.929 1083.26 119.315C1083.18 120.062 1083.22 120.706 1083.31 121.735C1083.39 122.716 1083.55 124.024 1083.76 125.356C1083.91 126.304 1084.03 126.815 1084.13 127.182C1084.31 127.775 1084.97 128.295 1086 128.295C1087.03 128.295 1087.69 127.775 1087.87 127.182C1087.98 126.815 1088.1 126.304 1088.24 125.356C1088.45 124.024 1088.61 122.716 1088.69 121.735C1088.78 120.706 1088.83 120.062 1088.75 119.315C1088.7 118.929 1088.57 118.658 1088.32 118.393ZM1083.39 113.882C1083.39 115.328 1084.56 116.501 1086 116.501C1087.45 116.501 1088.62 115.328 1088.62 113.882C1088.62 112.436 1087.45 111.263 1086 111.263C1084.56 111.263 1083.39 112.436 1083.39 113.882ZM1085.97 103.547C1079.85 103.564 1074.83 108.533 1074.75 114.658C1074.69 119.619 1077.86 123.863 1082.28 125.419C1082.39 125.456 1082.5 125.367 1082.48 125.255C1082.42 124.869 1082.37 124.482 1082.32 124.102C1082.3 123.967 1082.21 123.851 1082.09 123.797C1078.59 122.27 1076.15 118.764 1076.19 114.704C1076.24 109.375 1080.59 105.03 1085.92 104.987C1091.37 104.943 1095.82 109.362 1095.82 114.8C1095.82 118.82 1093.39 122.282 1089.92 123.797C1089.79 123.852 1089.71 123.968 1089.69 124.102C1089.64 124.483 1089.59 124.87 1089.53 125.255C1089.51 125.367 1089.62 125.456 1089.73 125.419C1094.11 123.878 1097.26 119.7 1097.26 114.8C1097.26 108.584 1092.19 103.529 1085.97 103.547ZM1085.77 108.709C1089.24 108.575 1092.11 111.361 1092.11 114.803C1092.11 116.554 1091.37 118.135 1090.18 119.248C1090.08 119.343 1090.03 119.477 1090.03 119.614C1090.06 120.033 1090.05 120.44 1090.02 120.9C1090.01 121.022 1090.15 121.1 1090.25 121.031C1092.24 119.673 1093.55 117.388 1093.55 114.803C1093.55 110.548 1090 107.104 1085.71 107.271C1081.72 107.425 1078.52 110.714 1078.47 114.705C1078.44 117.33 1079.75 119.656 1081.77 121.031C1081.87 121.101 1082.01 121.022 1082 120.9C1081.97 120.44 1081.96 120.033 1081.98 119.614C1081.99 119.477 1081.94 119.343 1081.84 119.248C1080.62 118.101 1079.87 116.456 1079.91 114.64C1080 111.444 1082.57 108.833 1085.77 108.709Z" fill="white"/>
</g>
<g clip-path="url(#clip3_2_273)">
<path d="M938.999 100.053C930.19 100.053 923.048 107.194 923.048 116.004C923.048 124.813 930.19 131.954 938.999 131.954C947.81 131.954 954.951 124.813 954.951 116.004C954.951 107.195 947.81 100.053 938.999 100.053L938.999 100.053ZM946.314 123.058C946.029 123.527 945.415 123.676 944.947 123.388C941.202 121.1 936.487 120.582 930.935 121.851C930.4 121.973 929.866 121.638 929.744 121.102C929.622 120.567 929.956 120.034 930.492 119.912C936.568 118.523 941.78 119.121 945.985 121.691C946.453 121.978 946.602 122.59 946.314 123.058ZM948.267 118.715C947.907 119.3 947.141 119.485 946.556 119.125C942.269 116.489 935.733 115.726 930.661 117.265C930.004 117.464 929.309 117.093 929.109 116.437C928.911 115.779 929.282 115.086 929.939 114.886C935.732 113.128 942.934 113.979 947.857 117.005C948.442 117.365 948.627 118.131 948.267 118.715V118.715ZM948.434 114.192C943.294 111.138 934.812 110.858 929.903 112.347C929.115 112.586 928.281 112.142 928.043 111.353C927.804 110.565 928.248 109.732 929.037 109.492C934.672 107.782 944.038 108.112 949.957 111.626C950.668 112.047 950.9 112.962 950.479 113.67C950.06 114.379 949.142 114.613 948.435 114.192H948.434Z" fill="#1ED760"/>
</g>
<g clip-path="url(#clip4_2_273)">
<path d="M1134.94 130C1142.7 130 1149 123.704 1149 115.938C1149 108.171 1142.7 101.875 1134.94 101.875C1127.17 101.875 1120.88 108.171 1120.88 115.938C1120.88 123.704 1127.17 130 1134.94 130Z" fill="white" stroke="#363F46" stroke-width="2.42578" stroke-linecap="round"/>
<path d="M1127.3 109.999C1127.3 109.999 1125.36 112.193 1125.36 116.026C1125.36 119.859 1127.3 121.964 1127.3 121.964" fill="white"/>
<path d="M1127.3 109.999C1127.3 109.999 1125.36 112.193 1125.36 116.026C1125.36 119.859 1127.3 121.964 1127.3 121.964" stroke="#FC7E0F" stroke-width="2.42578" stroke-linecap="round"/>
<path d="M1142.8 109.999C1142.8 109.999 1144.74 112.193 1144.74 116.026C1144.74 119.859 1142.8 121.964 1142.8 121.964" fill="white"/>
<path d="M1142.8 109.999C1142.8 109.999 1144.74 112.193 1144.74 116.026C1144.74 119.859 1142.8 121.964 1142.8 121.964" stroke="#FC7E0F" stroke-width="2.42578" stroke-linecap="round"/>
<path d="M1139.69 112.562C1139.69 112.562 1141 114.194 1140.97 116.018C1140.93 118.212 1139.71 119.417 1139.71 119.417" fill="white"/>
<path d="M1139.69 112.562C1139.69 112.562 1141 114.194 1140.97 116.018C1140.93 118.212 1139.71 119.417 1139.71 119.417" stroke="#FC7E0F" stroke-width="2.42578" stroke-linecap="round"/>
<path d="M1130.34 112.562C1130.34 112.562 1129.03 114.194 1129.06 116.018C1129.1 118.212 1130.32 119.417 1130.32 119.417" fill="white"/>
<path d="M1130.34 112.562C1130.34 112.562 1129.03 114.194 1129.06 116.018C1129.1 118.212 1130.32 119.417 1130.32 119.417" stroke="#FC7E0F" stroke-width="2.42578" stroke-linecap="round"/>
<path d="M1134.94 118.121C1136.14 118.121 1137.12 117.143 1137.12 115.938C1137.12 114.732 1136.14 113.755 1134.94 113.755C1133.73 113.755 1132.75 114.732 1132.75 115.938C1132.75 117.143 1133.73 118.121 1134.94 118.121Z" fill="#363F46"/>
<path d="M1135.3 117.977L1133.76 117.561L1131.18 127.192L1132.73 127.609L1135.3 117.977Z" fill="#363F46"/>
<path d="M1134.71 117.964L1136.25 117.555L1138.81 127.193L1137.27 127.603L1134.71 117.964Z" fill="#363F46"/>
<path d="M1133.27 123.162L1133.85 122.575L1137.82 126.443L1137.24 127.03L1133.27 123.162Z" fill="#363F46"/>
<path d="M1136.64 123.183L1136.12 122.657L1132.18 126.566L1132.7 127.091L1136.64 123.183Z" fill="#363F46"/>
</g>
<g clip-path="url(#clip5_2_273)">
<path d="M1052.66 116C1052.66 124.889 1045.53 132 1036.89 132C1028.26 132 1021 124.889 1021 116C1021 107.111 1028.13 100 1036.77 100C1045.4 100 1052.66 107.111 1052.66 116Z" fill="url(#paint1_linear_2_273)"/>
<path d="M1025.67 117.069C1025.68 117.016 1025.71 116.979 1025.76 116.979C1025.81 116.979 1025.84 117.016 1025.85 117.069L1026.05 118.346L1025.85 119.601C1025.84 119.654 1025.81 119.69 1025.76 119.69C1025.71 119.69 1025.68 119.653 1025.67 119.601L1025.5 118.346L1025.67 117.069Z" fill="white"/>
<path d="M1026.6 116.189C1026.65 116.189 1026.68 116.227 1026.69 116.282L1026.95 118.346L1026.69 120.365C1026.68 120.42 1026.65 120.458 1026.6 120.458C1026.55 120.458 1026.51 120.419 1026.5 120.365L1026.28 118.346L1026.5 116.282C1026.51 116.228 1026.55 116.189 1026.6 116.189Z" fill="white"/>
<path d="M1030.03 114.55C1030.03 114.453 1030.11 114.377 1030.2 114.377C1030.29 114.377 1030.37 114.453 1030.37 114.55L1030.57 118.348L1030.37 120.802V120.802C1030.37 120.898 1030.29 120.974 1030.2 120.974C1030.11 120.974 1030.03 120.898 1030.03 120.802L1029.85 118.348L1030.03 114.55Z" fill="white"/>
<path d="M1028.25 115.83C1028.26 115.754 1028.32 115.697 1028.39 115.697C1028.45 115.697 1028.51 115.754 1028.52 115.829L1028.75 118.346L1028.52 120.781C1028.51 120.856 1028.45 120.913 1028.39 120.913C1028.32 120.913 1028.26 120.856 1028.25 120.781L1028.05 118.346L1028.25 115.83Z" fill="white"/>
<path d="M1032.26 120.762C1032.25 120.88 1032.16 120.973 1032.05 120.973C1031.93 120.973 1031.84 120.88 1031.84 120.763L1031.68 118.348L1031.84 113.293C1031.84 113.174 1031.93 113.081 1032.05 113.081C1032.16 113.081 1032.25 113.174 1032.26 113.292L1032.43 118.349L1032.26 120.762Z" fill="white"/>
<path d="M1036.11 120.694C1036.11 120.854 1035.98 120.985 1035.82 120.985C1035.67 120.985 1035.54 120.854 1035.54 120.696C1035.54 120.696 1035.43 118.352 1035.43 118.348L1035.54 112.511C1035.54 112.351 1035.67 112.22 1035.82 112.22C1035.98 112.22 1036.11 112.351 1036.11 112.511L1036.23 118.35L1036.11 120.694Z" fill="white"/>
<path d="M1034.17 120.724C1034.17 120.865 1034.06 120.975 1033.92 120.975C1033.78 120.975 1033.68 120.865 1033.67 120.725L1033.54 118.349L1033.67 113.256C1033.68 113.115 1033.78 113.005 1033.92 113.005C1034.06 113.005 1034.17 113.115 1034.17 113.256L1034.32 118.349L1034.17 120.725V120.724Z" fill="white"/>
<path d="M1029.44 120.801C1029.44 120.888 1029.37 120.953 1029.29 120.953C1029.21 120.953 1029.14 120.888 1029.14 120.801L1028.95 118.346L1029.14 116.012C1029.14 115.925 1029.21 115.86 1029.29 115.86C1029.37 115.86 1029.44 115.925 1029.44 116.011L1029.66 118.346L1029.44 120.801Z" fill="white"/>
<path d="M1027.6 120.706C1027.59 120.772 1027.55 120.819 1027.49 120.819C1027.43 120.819 1027.38 120.771 1027.37 120.706L1027.16 118.346L1027.37 115.897C1027.38 115.832 1027.43 115.784 1027.49 115.784C1027.55 115.784 1027.59 115.831 1027.6 115.897L1027.84 118.346L1027.6 120.706Z" fill="white"/>
<path d="M1034.6 113.443C1034.6 113.29 1034.72 113.171 1034.87 113.171C1035.02 113.171 1035.13 113.29 1035.14 113.442L1035.27 118.35L1035.14 120.711V120.709C1035.13 120.861 1035.02 120.98 1034.87 120.98C1034.72 120.98 1034.6 120.861 1034.6 120.711L1034.48 118.35L1034.6 113.443Z" fill="white"/>
<path d="M1031.31 120.786C1031.31 120.894 1031.22 120.978 1031.12 120.978C1031.02 120.978 1030.93 120.894 1030.93 120.787L1030.76 118.348L1030.93 113.682C1030.93 113.574 1031.02 113.49 1031.12 113.49C1031.22 113.49 1031.31 113.574 1031.31 113.682L1031.5 118.348L1031.31 120.786Z" fill="white"/>
<path d="M1033.21 120.748V120.748C1033.21 120.877 1033.11 120.978 1032.98 120.978C1032.86 120.978 1032.75 120.876 1032.75 120.748L1032.61 118.349L1032.75 113.122C1032.75 112.992 1032.86 112.891 1032.98 112.891C1033.11 112.891 1033.21 112.992 1033.21 113.122L1033.37 118.349L1033.21 120.747V120.748C1033.21 120.747 1033.21 120.747 1033.21 120.747V120.748Z" fill="white"/>
<path d="M1044.29 115.556C1044.62 115.414 1044.99 115.336 1045.37 115.336C1046.91 115.336 1048.15 116.602 1048.15 118.164C1048.15 119.725 1046.91 120.991 1045.37 120.991C1045.32 120.991 1037.65 120.987 1037.65 120.986C1037.48 120.969 1037.35 120.825 1037.35 120.652V111.679C1037.35 111.514 1037.4 111.429 1037.61 111.347C1038.15 111.134 1038.77 111.009 1039.4 111.009C1041.96 111.009 1044.07 113.008 1044.29 115.556Z" fill="white"/>
<path d="M1036.47 111.982C1036.47 111.811 1036.61 111.671 1036.78 111.671C1036.94 111.671 1037.08 111.811 1037.08 111.982L1037.22 118.351L1037.08 120.663V120.66C1037.08 120.831 1036.94 120.97 1036.78 120.97C1036.61 120.97 1036.47 120.831 1036.47 120.662L1036.34 118.351L1036.47 111.982Z" fill="white"/>
</g>
<path d="M534.258 118V106.1H535.686V111.353H541.857V106.1H543.285V118H541.857V112.526H535.686V118H534.258ZM549.553 118.204C548.76 118.204 548.046 118.023 547.411 117.66C546.776 117.297 546.272 116.787 545.898 116.13C545.535 115.461 545.354 114.679 545.354 113.784C545.354 112.889 545.541 112.112 545.915 111.455C546.289 110.786 546.793 110.271 547.428 109.908C548.074 109.545 548.794 109.364 549.587 109.364C550.38 109.364 551.094 109.545 551.729 109.908C552.364 110.271 552.862 110.786 553.225 111.455C553.599 112.112 553.786 112.889 553.786 113.784C553.786 114.679 553.599 115.461 553.225 116.13C552.851 116.787 552.341 117.297 551.695 117.66C551.06 118.023 550.346 118.204 549.553 118.204ZM549.553 116.98C550.04 116.98 550.494 116.861 550.913 116.623C551.332 116.385 551.672 116.028 551.933 115.552C552.194 115.076 552.324 114.487 552.324 113.784C552.324 113.081 552.194 112.492 551.933 112.016C551.684 111.54 551.349 111.183 550.93 110.945C550.511 110.707 550.063 110.588 549.587 110.588C549.1 110.588 548.646 110.707 548.227 110.945C547.808 111.183 547.468 111.54 547.207 112.016C546.946 112.492 546.816 113.081 546.816 113.784C546.816 114.487 546.946 115.076 547.207 115.552C547.468 116.028 547.802 116.385 548.21 116.623C548.629 116.861 549.077 116.98 549.553 116.98ZM555.772 118V109.568H557.064L557.166 110.792C557.438 110.339 557.8 109.987 558.254 109.738C558.707 109.489 559.217 109.364 559.784 109.364C560.452 109.364 561.025 109.5 561.501 109.772C561.988 110.044 562.362 110.458 562.623 111.013C562.917 110.503 563.32 110.101 563.83 109.806C564.351 109.511 564.912 109.364 565.513 109.364C566.521 109.364 567.326 109.67 567.927 110.282C568.527 110.883 568.828 111.812 568.828 113.07V118H567.417V113.223C567.417 112.35 567.241 111.693 566.89 111.251C566.538 110.809 566.034 110.588 565.377 110.588C564.697 110.588 564.13 110.854 563.677 111.387C563.235 111.908 563.014 112.656 563.014 113.631V118H561.586V113.223C561.586 112.35 561.41 111.693 561.059 111.251C560.707 110.809 560.203 110.588 559.546 110.588C558.877 110.588 558.316 110.854 557.863 111.387C557.421 111.908 557.2 112.656 557.2 113.631V118H555.772ZM574.77 118.204C573.965 118.204 573.251 118.023 572.628 117.66C572.004 117.286 571.511 116.77 571.149 116.113C570.797 115.456 570.622 114.679 570.622 113.784C570.622 112.9 570.797 112.129 571.149 111.472C571.5 110.803 571.987 110.288 572.611 109.925C573.245 109.551 573.976 109.364 574.804 109.364C575.62 109.364 576.322 109.551 576.912 109.925C577.512 110.288 577.971 110.769 578.289 111.37C578.606 111.971 578.765 112.617 578.765 113.308C578.765 113.433 578.759 113.557 578.748 113.682C578.748 113.807 578.748 113.948 578.748 114.107H572.033C572.067 114.753 572.214 115.291 572.475 115.722C572.747 116.141 573.081 116.459 573.478 116.674C573.886 116.889 574.316 116.997 574.77 116.997C575.359 116.997 575.852 116.861 576.249 116.589C576.645 116.317 576.934 115.949 577.116 115.484H578.527C578.3 116.266 577.864 116.918 577.218 117.439C576.583 117.949 575.767 118.204 574.77 118.204ZM574.77 110.571C574.09 110.571 573.483 110.781 572.951 111.2C572.429 111.608 572.129 112.209 572.05 113.002H577.354C577.32 112.243 577.059 111.648 576.572 111.217C576.084 110.786 575.484 110.571 574.77 110.571Z" fill="white"/>
<path d="M534.258 192V180.1H541.619V181.273H535.686V185.421H541.109V186.577H535.686V190.827H541.619V192H534.258ZM543.769 195.74V183.568H545.061L545.197 184.962C545.469 184.554 545.854 184.186 546.353 183.857C546.863 183.528 547.509 183.364 548.291 183.364C549.129 183.364 549.86 183.557 550.484 183.942C551.107 184.327 551.589 184.854 551.929 185.523C552.28 186.192 552.456 186.951 552.456 187.801C552.456 188.651 552.28 189.41 551.929 190.079C551.589 190.736 551.101 191.258 550.467 191.643C549.843 192.017 549.112 192.204 548.274 192.204C547.582 192.204 546.965 192.062 546.421 191.779C545.888 191.496 545.48 191.099 545.197 190.589V195.74H543.769ZM548.121 190.963C548.687 190.963 549.186 190.833 549.617 190.572C550.047 190.3 550.387 189.926 550.637 189.45C550.886 188.974 551.011 188.419 551.011 187.784C551.011 187.149 550.886 186.594 550.637 186.118C550.387 185.642 550.047 185.274 549.617 185.013C549.186 184.741 548.687 184.605 548.121 184.605C547.554 184.605 547.055 184.741 546.625 185.013C546.194 185.274 545.854 185.642 545.605 186.118C545.355 186.594 545.231 187.149 545.231 187.784C545.231 188.419 545.355 188.974 545.605 189.45C545.854 189.926 546.194 190.3 546.625 190.572C547.055 190.833 547.554 190.963 548.121 190.963ZM555.311 181.698C555.027 181.698 554.789 181.607 554.597 181.426C554.415 181.233 554.325 180.995 554.325 180.712C554.325 180.44 554.415 180.213 554.597 180.032C554.789 179.851 555.027 179.76 555.311 179.76C555.583 179.76 555.815 179.851 556.008 180.032C556.2 180.213 556.297 180.44 556.297 180.712C556.297 180.995 556.2 181.233 556.008 181.426C555.815 181.607 555.583 181.698 555.311 181.698ZM554.597 192V183.568H556.025V192H554.597ZM561.741 192.204C560.732 192.204 559.894 191.949 559.225 191.439C558.556 190.929 558.165 190.238 558.052 189.365H559.514C559.605 189.807 559.837 190.192 560.211 190.521C560.596 190.838 561.112 190.997 561.758 190.997C562.359 190.997 562.801 190.872 563.084 190.623C563.367 190.362 563.509 190.056 563.509 189.705C563.509 189.195 563.322 188.855 562.948 188.685C562.585 188.515 562.07 188.362 561.401 188.226C560.948 188.135 560.494 188.005 560.041 187.835C559.588 187.665 559.208 187.427 558.902 187.121C558.596 186.804 558.443 186.39 558.443 185.88C558.443 185.143 558.715 184.543 559.259 184.078C559.814 183.602 560.562 183.364 561.503 183.364C562.398 183.364 563.129 183.591 563.696 184.044C564.274 184.486 564.608 185.121 564.699 185.948H563.288C563.231 185.517 563.044 185.183 562.727 184.945C562.421 184.696 562.007 184.571 561.486 184.571C560.976 184.571 560.579 184.679 560.296 184.894C560.024 185.109 559.888 185.393 559.888 185.744C559.888 186.084 560.064 186.35 560.415 186.543C560.778 186.736 561.265 186.9 561.877 187.036C562.398 187.149 562.891 187.291 563.356 187.461C563.832 187.62 564.217 187.863 564.512 188.192C564.818 188.509 564.971 188.974 564.971 189.586C564.982 190.345 564.693 190.974 564.104 191.473C563.526 191.96 562.738 192.204 561.741 192.204ZM570.853 192.204C570.06 192.204 569.346 192.023 568.711 191.66C568.076 191.297 567.572 190.787 567.198 190.13C566.835 189.461 566.654 188.679 566.654 187.784C566.654 186.889 566.841 186.112 567.215 185.455C567.589 184.786 568.093 184.271 568.728 183.908C569.374 183.545 570.094 183.364 570.887 183.364C571.68 183.364 572.394 183.545 573.029 183.908C573.664 184.271 574.162 184.786 574.525 185.455C574.899 186.112 575.086 186.889 575.086 187.784C575.086 188.679 574.899 189.461 574.525 190.13C574.151 190.787 573.641 191.297 572.995 191.66C572.36 192.023 571.646 192.204 570.853 192.204ZM570.853 190.98C571.34 190.98 571.794 190.861 572.213 190.623C572.632 190.385 572.972 190.028 573.233 189.552C573.494 189.076 573.624 188.487 573.624 187.784C573.624 187.081 573.494 186.492 573.233 186.016C572.984 185.54 572.649 185.183 572.23 184.945C571.811 184.707 571.363 184.588 570.887 184.588C570.4 184.588 569.946 184.707 569.527 184.945C569.108 185.183 568.768 185.54 568.507 186.016C568.246 186.492 568.116 187.081 568.116 187.784C568.116 188.487 568.246 189.076 568.507 189.552C568.768 190.028 569.102 190.385 569.51 190.623C569.929 190.861 570.377 190.98 570.853 190.98ZM580.896 192.204C580.058 192.204 579.321 192.011 578.686 191.626C578.063 191.241 577.576 190.714 577.224 190.045C576.884 189.376 576.714 188.617 576.714 187.767C576.714 186.917 576.89 186.163 577.241 185.506C577.593 184.837 578.08 184.316 578.703 183.942C579.327 183.557 580.063 183.364 580.913 183.364C581.605 183.364 582.217 183.506 582.749 183.789C583.282 184.072 583.696 184.469 583.99 184.979V179.76H585.418V192H584.126L583.99 190.606C583.718 191.014 583.327 191.382 582.817 191.711C582.307 192.04 581.667 192.204 580.896 192.204ZM581.049 190.963C581.616 190.963 582.115 190.833 582.545 190.572C582.987 190.3 583.327 189.926 583.565 189.45C583.815 188.974 583.939 188.419 583.939 187.784C583.939 187.149 583.815 186.594 583.565 186.118C583.327 185.642 582.987 185.274 582.545 185.013C582.115 184.741 581.616 184.605 581.049 184.605C580.494 184.605 579.995 184.741 579.553 185.013C579.123 185.274 578.783 185.642 578.533 186.118C578.295 186.594 578.176 187.149 578.176 187.784C578.176 188.419 578.295 188.974 578.533 189.45C578.783 189.926 579.123 190.3 579.553 190.572C579.995 190.833 580.494 190.963 581.049 190.963ZM591.537 192.204C590.733 192.204 590.019 192.023 589.395 191.66C588.772 191.286 588.279 190.77 587.916 190.113C587.565 189.456 587.389 188.679 587.389 187.784C587.389 186.9 587.565 186.129 587.916 185.472C588.268 184.803 588.755 184.288 589.378 183.925C590.013 183.551 590.744 183.364 591.571 183.364C592.387 183.364 593.09 183.551 593.679 183.925C594.28 184.288 594.739 184.769 595.056 185.37C595.374 185.971 595.532 186.617 595.532 187.308C595.532 187.433 595.527 187.557 595.515 187.682C595.515 187.807 595.515 187.948 595.515 188.107H588.8C588.834 188.753 588.982 189.291 589.242 189.722C589.514 190.141 589.849 190.459 590.245 190.674C590.653 190.889 591.084 190.997 591.537 190.997C592.127 190.997 592.62 190.861 593.016 190.589C593.413 190.317 593.702 189.949 593.883 189.484H595.294C595.068 190.266 594.631 190.918 593.985 191.439C593.351 191.949 592.535 192.204 591.537 192.204ZM591.537 184.571C590.857 184.571 590.251 184.781 589.718 185.2C589.197 185.608 588.897 186.209 588.817 187.002H594.121C594.087 186.243 593.827 185.648 593.339 185.217C592.852 184.786 592.251 184.571 591.537 184.571ZM600.655 192.204C599.646 192.204 598.808 191.949 598.139 191.439C597.47 190.929 597.079 190.238 596.966 189.365H598.428C598.519 189.807 598.751 190.192 599.125 190.521C599.51 190.838 600.026 190.997 600.672 190.997C601.273 190.997 601.715 190.872 601.998 190.623C602.281 190.362 602.423 190.056 602.423 189.705C602.423 189.195 602.236 188.855 601.862 188.685C601.499 188.515 600.984 188.362 600.315 188.226C599.862 188.135 599.408 188.005 598.955 187.835C598.502 187.665 598.122 187.427 597.816 187.121C597.51 186.804 597.357 186.39 597.357 185.88C597.357 185.143 597.629 184.543 598.173 184.078C598.728 183.602 599.476 183.364 600.417 183.364C601.312 183.364 602.043 183.591 602.61 184.044C603.188 184.486 603.522 185.121 603.613 185.948H602.202C602.145 185.517 601.958 185.183 601.641 184.945C601.335 184.696 600.921 184.571 600.4 184.571C599.89 184.571 599.493 184.679 599.21 184.894C598.938 185.109 598.802 185.393 598.802 185.744C598.802 186.084 598.978 186.35 599.329 186.543C599.692 186.736 600.179 186.9 600.791 187.036C601.312 187.149 601.805 187.291 602.27 187.461C602.746 187.62 603.131 187.863 603.426 188.192C603.732 188.509 603.885 188.974 603.885 189.586C603.896 190.345 603.607 190.974 603.018 191.473C602.44 191.96 601.652 192.204 600.655 192.204Z" fill="white"/>
<path d="M533.51 155L537.896 143.1H539.409L543.778 155H542.265L541.177 151.94H536.111L535.006 155H533.51ZM536.536 150.784H540.752L538.644 144.902L536.536 150.784ZM549.967 155.204C549.276 155.204 548.658 155.062 548.114 154.779C547.581 154.496 547.173 154.099 546.89 153.589L546.754 155H545.462V142.76H546.89V147.962C547.162 147.554 547.547 147.186 548.046 146.857C548.556 146.528 549.202 146.364 549.984 146.364C550.823 146.364 551.554 146.557 552.177 146.942C552.8 147.327 553.282 147.854 553.622 148.523C553.973 149.192 554.149 149.951 554.149 150.801C554.149 151.651 553.973 152.41 553.622 153.079C553.282 153.736 552.795 154.258 552.16 154.643C551.537 155.017 550.806 155.204 549.967 155.204ZM549.814 153.963C550.381 153.963 550.879 153.833 551.31 153.572C551.741 153.3 552.081 152.926 552.33 152.45C552.579 151.974 552.704 151.419 552.704 150.784C552.704 150.149 552.579 149.594 552.33 149.118C552.081 148.642 551.741 148.274 551.31 148.013C550.879 147.741 550.381 147.605 549.814 147.605C549.247 147.605 548.749 147.741 548.318 148.013C547.887 148.274 547.547 148.642 547.298 149.118C547.049 149.594 546.924 150.149 546.924 150.784C546.924 151.419 547.049 151.974 547.298 152.45C547.547 152.926 547.887 153.3 548.318 153.572C548.749 153.833 549.247 153.963 549.814 153.963ZM559.979 155.204C559.186 155.204 558.472 155.023 557.837 154.66C557.202 154.297 556.698 153.787 556.324 153.13C555.961 152.461 555.78 151.679 555.78 150.784C555.78 149.889 555.967 149.112 556.341 148.455C556.715 147.786 557.219 147.271 557.854 146.908C558.5 146.545 559.22 146.364 560.013 146.364C560.806 146.364 561.52 146.545 562.155 146.908C562.79 147.271 563.288 147.786 563.651 148.455C564.025 149.112 564.212 149.889 564.212 150.784C564.212 151.679 564.025 152.461 563.651 153.13C563.277 153.787 562.767 154.297 562.121 154.66C561.486 155.023 560.772 155.204 559.979 155.204ZM559.979 153.98C560.466 153.98 560.92 153.861 561.339 153.623C561.758 153.385 562.098 153.028 562.359 152.552C562.62 152.076 562.75 151.487 562.75 150.784C562.75 150.081 562.62 149.492 562.359 149.016C562.11 148.54 561.775 148.183 561.356 147.945C560.937 147.707 560.489 147.588 560.013 147.588C559.526 147.588 559.072 147.707 558.653 147.945C558.234 148.183 557.894 148.54 557.633 149.016C557.372 149.492 557.242 150.081 557.242 150.784C557.242 151.487 557.372 152.076 557.633 152.552C557.894 153.028 558.228 153.385 558.636 153.623C559.055 153.861 559.503 153.98 559.979 153.98ZM569.274 155.204C568.277 155.204 567.484 154.904 566.894 154.303C566.305 153.691 566.01 152.756 566.01 151.498V146.568H567.438V151.345C567.438 153.102 568.158 153.98 569.597 153.98C570.334 153.98 570.94 153.719 571.416 153.198C571.904 152.665 572.147 151.912 572.147 150.937V146.568H573.575V155H572.283L572.181 153.487C571.921 154.02 571.53 154.439 571.008 154.745C570.498 155.051 569.92 155.204 569.274 155.204ZM579.258 155C578.487 155 577.881 154.813 577.439 154.439C576.997 154.065 576.776 153.391 576.776 152.416V147.775H575.314V146.568H576.776L576.963 144.545H578.204V146.568H580.686V147.775H578.204V152.416C578.204 152.949 578.312 153.311 578.527 153.504C578.742 153.685 579.122 153.776 579.666 153.776H580.55V155H579.258Z" fill="white"/>
<path d="M539.858 230.216C538.622 230.216 537.554 229.946 536.654 229.406C535.766 228.854 535.076 228.092 534.584 227.12C534.092 226.136 533.846 224.996 533.846 223.7C533.846 222.416 534.092 221.288 534.584 220.316C535.076 219.332 535.766 218.564 536.654 218.012C537.554 217.46 538.622 217.184 539.858 217.184C541.298 217.184 542.468 217.532 543.368 218.228C544.28 218.912 544.862 219.872 545.114 221.108H543.44C543.248 220.328 542.852 219.704 542.252 219.236C541.664 218.756 540.866 218.516 539.858 218.516C538.958 218.516 538.172 218.726 537.5 219.146C536.828 219.554 536.306 220.148 535.934 220.928C535.574 221.696 535.394 222.62 535.394 223.7C535.394 224.78 535.574 225.71 535.934 226.49C536.306 227.258 536.828 227.852 537.5 228.272C538.172 228.68 538.958 228.884 539.858 228.884C540.866 228.884 541.664 228.656 542.252 228.2C542.852 227.732 543.248 227.114 543.44 226.346H545.114C544.862 227.558 544.28 228.506 543.368 229.19C542.468 229.874 541.298 230.216 539.858 230.216ZM551.265 230.216C550.425 230.216 549.669 230.024 548.997 229.64C548.325 229.256 547.791 228.716 547.395 228.02C547.011 227.312 546.819 226.484 546.819 225.536C546.819 224.588 547.017 223.766 547.413 223.07C547.809 222.362 548.343 221.816 549.015 221.432C549.699 221.048 550.461 220.856 551.301 220.856C552.141 220.856 552.897 221.048 553.569 221.432C554.241 221.816 554.769 222.362 555.153 223.07C555.549 223.766 555.747 224.588 555.747 225.536C555.747 226.484 555.549 227.312 555.153 228.02C554.757 228.716 554.217 229.256 553.533 229.64C552.861 230.024 552.105 230.216 551.265 230.216ZM551.265 228.92C551.781 228.92 552.261 228.794 552.705 228.542C553.149 228.29 553.509 227.912 553.785 227.408C554.061 226.904 554.199 226.28 554.199 225.536C554.199 224.792 554.061 224.168 553.785 223.664C553.521 223.16 553.167 222.782 552.723 222.53C552.279 222.278 551.805 222.152 551.301 222.152C550.785 222.152 550.305 222.278 549.861 222.53C549.417 222.782 549.057 223.16 548.781 223.664C548.505 224.168 548.367 224.792 548.367 225.536C548.367 226.28 548.505 226.904 548.781 227.408C549.057 227.912 549.411 228.29 549.843 228.542C550.287 228.794 550.761 228.92 551.265 228.92ZM557.849 230V221.072H559.217L559.307 222.674C559.595 222.11 560.009 221.666 560.549 221.342C561.089 221.018 561.701 220.856 562.385 220.856C563.441 220.856 564.281 221.18 564.905 221.828C565.541 222.464 565.859 223.448 565.859 224.78V230H564.347V224.942C564.347 223.082 563.579 222.152 562.043 222.152C561.275 222.152 560.633 222.434 560.117 222.998C559.613 223.55 559.361 224.342 559.361 225.374V230H557.849ZM571.678 230C570.862 230 570.22 229.802 569.752 229.406C569.284 229.01 569.05 228.296 569.05 227.264V222.35H567.502V221.072H569.05L569.248 218.93H570.562V221.072H573.19V222.35H570.562V227.264C570.562 227.828 570.676 228.212 570.904 228.416C571.132 228.608 571.534 228.704 572.11 228.704H573.046V230H571.678ZM578.081 230.216C577.337 230.216 576.719 230.09 576.227 229.838C575.735 229.586 575.369 229.25 575.129 228.83C574.889 228.41 574.769 227.954 574.769 227.462C574.769 226.55 575.117 225.848 575.813 225.356C576.509 224.864 577.457 224.618 578.657 224.618H581.069V224.51C581.069 223.73 580.865 223.142 580.457 222.746C580.049 222.338 579.503 222.134 578.819 222.134C578.231 222.134 577.721 222.284 577.289 222.584C576.869 222.872 576.605 223.298 576.497 223.862H574.949C575.009 223.214 575.225 222.668 575.597 222.224C575.981 221.78 576.455 221.444 577.019 221.216C577.583 220.976 578.183 220.856 578.819 220.856C580.067 220.856 581.003 221.192 581.627 221.864C582.263 222.524 582.581 223.406 582.581 224.51V230H581.231L581.141 228.398C580.889 228.902 580.517 229.334 580.025 229.694C579.545 230.042 578.897 230.216 578.081 230.216ZM578.315 228.938C578.891 228.938 579.383 228.788 579.791 228.488C580.211 228.188 580.529 227.798 580.745 227.318C580.961 226.838 581.069 226.334 581.069 225.806V225.788H578.783C577.895 225.788 577.265 225.944 576.893 226.256C576.533 226.556 576.353 226.934 576.353 227.39C576.353 227.858 576.521 228.236 576.857 228.524C577.205 228.8 577.691 228.938 578.315 228.938ZM588.953 230.216C588.101 230.216 587.333 230.024 586.649 229.64C585.977 229.244 585.443 228.698 585.047 228.002C584.663 227.294 584.471 226.472 584.471 225.536C584.471 224.6 584.663 223.784 585.047 223.088C585.443 222.38 585.977 221.834 586.649 221.45C587.333 221.054 588.101 220.856 588.953 220.856C590.009 220.856 590.897 221.132 591.617 221.684C592.349 222.236 592.811 222.974 593.003 223.898H591.455C591.335 223.346 591.041 222.92 590.573 222.62C590.105 222.308 589.559 222.152 588.935 222.152C588.431 222.152 587.957 222.278 587.513 222.53C587.069 222.782 586.709 223.16 586.433 223.664C586.157 224.168 586.019 224.792 586.019 225.536C586.019 226.28 586.157 226.904 586.433 227.408C586.709 227.912 587.069 228.296 587.513 228.56C587.957 228.812 588.431 228.938 588.935 228.938C589.559 228.938 590.105 228.788 590.573 228.488C591.041 228.176 591.335 227.738 591.455 227.174H593.003C592.823 228.074 592.367 228.806 591.635 229.37C590.903 229.934 590.009 230.216 588.953 230.216ZM598.397 230C597.581 230 596.939 229.802 596.471 229.406C596.003 229.01 595.769 228.296 595.769 227.264V222.35H594.221V221.072H595.769L595.967 218.93H597.281V221.072H599.909V222.35H597.281V227.264C597.281 227.828 597.395 228.212 597.623 228.416C597.851 228.608 598.253 228.704 598.829 228.704H599.765V230H598.397Z" fill="white"/>
<path d="M733.049 118.204C732.176 118.204 731.417 118.045 730.771 117.728C730.125 117.411 729.626 116.969 729.275 116.402C728.924 115.835 728.748 115.178 728.748 114.43H730.244C730.244 114.895 730.352 115.325 730.567 115.722C730.782 116.107 731.094 116.419 731.502 116.657C731.921 116.884 732.437 116.997 733.049 116.997C733.854 116.997 734.477 116.804 734.919 116.419C735.361 116.034 735.582 115.552 735.582 114.974C735.582 114.498 735.48 114.118 735.276 113.835C735.072 113.54 734.794 113.302 734.443 113.121C734.103 112.94 733.706 112.781 733.253 112.645C732.811 112.509 732.346 112.356 731.859 112.186C730.941 111.869 730.261 111.478 729.819 111.013C729.377 110.537 729.156 109.919 729.156 109.16C729.145 108.525 729.292 107.964 729.598 107.477C729.904 106.978 730.335 106.593 730.89 106.321C731.457 106.038 732.125 105.896 732.896 105.896C733.655 105.896 734.313 106.038 734.868 106.321C735.435 106.604 735.871 106.995 736.177 107.494C736.494 107.993 736.659 108.559 736.67 109.194H735.174C735.174 108.865 735.089 108.542 734.919 108.225C734.749 107.896 734.488 107.63 734.137 107.426C733.797 107.222 733.366 107.12 732.845 107.12C732.199 107.109 731.666 107.273 731.247 107.613C730.839 107.953 730.635 108.423 730.635 109.024C730.635 109.534 730.777 109.925 731.06 110.197C731.355 110.469 731.763 110.696 732.284 110.877C732.805 111.047 733.406 111.245 734.086 111.472C734.653 111.676 735.163 111.914 735.616 112.186C736.069 112.458 736.421 112.809 736.67 113.24C736.931 113.671 737.061 114.22 737.061 114.889C737.061 115.456 736.914 115.994 736.619 116.504C736.324 117.003 735.877 117.411 735.276 117.728C734.687 118.045 733.944 118.204 733.049 118.204ZM742.333 118C741.562 118 740.956 117.813 740.514 117.439C740.072 117.065 739.851 116.391 739.851 115.416V110.775H738.389V109.568H739.851L740.038 107.545H741.279V109.568H743.761V110.775H741.279V115.416C741.279 115.949 741.387 116.311 741.602 116.504C741.817 116.685 742.197 116.776 742.741 116.776H743.625V118H742.333ZM746.493 121.74L748.584 117.184H748.091L744.742 109.568H746.289L749.077 116.13L752.035 109.568H753.514L747.989 121.74H746.493ZM755.022 118V105.76H756.45V118H755.022ZM762.581 118.204C761.777 118.204 761.063 118.023 760.439 117.66C759.816 117.286 759.323 116.77 758.96 116.113C758.609 115.456 758.433 114.679 758.433 113.784C758.433 112.9 758.609 112.129 758.96 111.472C759.312 110.803 759.799 110.288 760.422 109.925C761.057 109.551 761.788 109.364 762.615 109.364C763.431 109.364 764.134 109.551 764.723 109.925C765.324 110.288 765.783 110.769 766.1 111.37C766.418 111.971 766.576 112.617 766.576 113.308C766.576 113.433 766.571 113.557 766.559 113.682C766.559 113.807 766.559 113.948 766.559 114.107H759.844C759.878 114.753 760.026 115.291 760.286 115.722C760.558 116.141 760.893 116.459 761.289 116.674C761.697 116.889 762.128 116.997 762.581 116.997C763.171 116.997 763.664 116.861 764.06 116.589C764.457 116.317 764.746 115.949 764.927 115.484H766.338C766.112 116.266 765.675 116.918 765.029 117.439C764.395 117.949 763.579 118.204 762.581 118.204ZM762.581 110.571C761.901 110.571 761.295 110.781 760.762 111.2C760.241 111.608 759.941 112.209 759.861 113.002H765.165C765.131 112.243 764.871 111.648 764.383 111.217C763.896 110.786 763.295 110.571 762.581 110.571ZM778.17 118.204C777.059 118.204 776.085 117.949 775.246 117.439C774.407 116.918 773.756 116.198 773.291 115.28C772.826 114.351 772.594 113.28 772.594 112.067C772.594 110.854 772.826 109.783 773.291 108.854C773.767 107.925 774.436 107.199 775.297 106.678C776.17 106.157 777.195 105.896 778.374 105.896C779.711 105.896 780.822 106.219 781.706 106.865C782.601 107.511 783.179 108.401 783.44 109.534H781.791C781.632 108.82 781.253 108.253 780.652 107.834C780.063 107.415 779.303 107.205 778.374 107.205C777.501 107.205 776.742 107.403 776.096 107.8C775.45 108.185 774.946 108.741 774.583 109.466C774.232 110.191 774.056 111.058 774.056 112.067C774.056 113.076 774.232 113.943 774.583 114.668C774.934 115.393 775.422 115.954 776.045 116.351C776.668 116.736 777.394 116.929 778.221 116.929C779.49 116.929 780.448 116.561 781.094 115.824C781.74 115.076 782.108 114.056 782.199 112.764H778.765V111.642H783.661V118H782.352L782.233 116.045C781.802 116.736 781.275 117.269 780.652 117.643C780.029 118.017 779.201 118.204 778.17 118.204ZM788.911 118.204C787.914 118.204 787.12 117.904 786.531 117.303C785.942 116.691 785.647 115.756 785.647 114.498V109.568H787.075V114.345C787.075 116.102 787.795 116.98 789.234 116.98C789.971 116.98 790.577 116.719 791.053 116.198C791.54 115.665 791.784 114.912 791.784 113.937V109.568H793.212V118H791.92L791.818 116.487C791.557 117.02 791.166 117.439 790.645 117.745C790.135 118.051 789.557 118.204 788.911 118.204ZM796.43 107.698C796.146 107.698 795.908 107.607 795.716 107.426C795.534 107.233 795.444 106.995 795.444 106.712C795.444 106.44 795.534 106.213 795.716 106.032C795.908 105.851 796.146 105.76 796.43 105.76C796.702 105.76 796.934 105.851 797.127 106.032C797.319 106.213 797.416 106.44 797.416 106.712C797.416 106.995 797.319 107.233 797.127 107.426C796.934 107.607 796.702 107.698 796.43 107.698ZM795.716 118V109.568H797.144V118H795.716ZM803.455 118.204C802.616 118.204 801.88 118.011 801.245 117.626C800.622 117.241 800.134 116.714 799.783 116.045C799.443 115.376 799.273 114.617 799.273 113.767C799.273 112.917 799.449 112.163 799.8 111.506C800.151 110.837 800.639 110.316 801.262 109.942C801.885 109.557 802.622 109.364 803.472 109.364C804.163 109.364 804.775 109.506 805.308 109.789C805.841 110.072 806.254 110.469 806.549 110.979V105.76H807.977V118H806.685L806.549 116.606C806.277 117.014 805.886 117.382 805.376 117.711C804.866 118.04 804.226 118.204 803.455 118.204ZM803.608 116.963C804.175 116.963 804.673 116.833 805.104 116.572C805.546 116.3 805.886 115.926 806.124 115.45C806.373 114.974 806.498 114.419 806.498 113.784C806.498 113.149 806.373 112.594 806.124 112.118C805.886 111.642 805.546 111.274 805.104 111.013C804.673 110.741 804.175 110.605 803.608 110.605C803.053 110.605 802.554 110.741 802.112 111.013C801.681 111.274 801.341 111.642 801.092 112.118C800.854 112.594 800.735 113.149 800.735 113.784C800.735 114.419 800.854 114.974 801.092 115.45C801.341 115.926 801.681 116.3 802.112 116.572C802.554 116.833 803.053 116.963 803.608 116.963ZM814.096 118.204C813.291 118.204 812.577 118.023 811.954 117.66C811.331 117.286 810.838 116.77 810.475 116.113C810.124 115.456 809.948 114.679 809.948 113.784C809.948 112.9 810.124 112.129 810.475 111.472C810.826 110.803 811.314 110.288 811.937 109.925C812.572 109.551 813.303 109.364 814.13 109.364C814.946 109.364 815.649 109.551 816.238 109.925C816.839 110.288 817.298 110.769 817.615 111.37C817.932 111.971 818.091 112.617 818.091 113.308C818.091 113.433 818.085 113.557 818.074 113.682C818.074 113.807 818.074 113.948 818.074 114.107H811.359C811.393 114.753 811.54 115.291 811.801 115.722C812.073 116.141 812.407 116.459 812.804 116.674C813.212 116.889 813.643 116.997 814.096 116.997C814.685 116.997 815.178 116.861 815.575 116.589C815.972 116.317 816.261 115.949 816.442 115.484H817.853C817.626 116.266 817.19 116.918 816.544 117.439C815.909 117.949 815.093 118.204 814.096 118.204ZM814.096 110.571C813.416 110.571 812.81 110.781 812.277 111.2C811.756 111.608 811.455 112.209 811.376 113.002H816.68C816.646 112.243 816.385 111.648 815.898 111.217C815.411 110.786 814.81 110.571 814.096 110.571Z" fill="white"/>
<path d="M734.858 193.216C733.622 193.216 732.554 192.946 731.654 192.406C730.766 191.854 730.076 191.092 729.584 190.12C729.092 189.136 728.846 187.996 728.846 186.7C728.846 185.416 729.092 184.288 729.584 183.316C730.076 182.332 730.766 181.564 731.654 181.012C732.554 180.46 733.622 180.184 734.858 180.184C736.298 180.184 737.468 180.532 738.368 181.228C739.28 181.912 739.862 182.872 740.114 184.108H738.44C738.248 183.328 737.852 182.704 737.252 182.236C736.664 181.756 735.866 181.516 734.858 181.516C733.958 181.516 733.172 181.726 732.5 182.146C731.828 182.554 731.306 183.148 730.934 183.928C730.574 184.696 730.394 185.62 730.394 186.7C730.394 187.78 730.574 188.71 730.934 189.49C731.306 190.258 731.828 190.852 732.5 191.272C733.172 191.68 733.958 191.884 734.858 191.884C735.866 191.884 736.664 191.656 737.252 191.2C737.852 190.732 738.248 190.114 738.44 189.346H740.114C739.862 190.558 739.28 191.506 738.368 192.19C737.468 192.874 736.298 193.216 734.858 193.216ZM742.197 193V180.04H743.709V185.602C744.009 185.05 744.435 184.624 744.987 184.324C745.539 184.012 746.139 183.856 746.787 183.856C747.819 183.856 748.647 184.18 749.271 184.828C749.895 185.464 750.207 186.448 750.207 187.78V193H748.713V187.942C748.713 186.082 747.963 185.152 746.463 185.152C745.683 185.152 745.029 185.434 744.501 185.998C743.973 186.55 743.709 187.342 743.709 188.374V193H742.197ZM755.468 193.216C754.724 193.216 754.106 193.09 753.614 192.838C753.122 192.586 752.756 192.25 752.516 191.83C752.276 191.41 752.156 190.954 752.156 190.462C752.156 189.55 752.504 188.848 753.2 188.356C753.896 187.864 754.844 187.618 756.044 187.618H758.456V187.51C758.456 186.73 758.252 186.142 757.844 185.746C757.436 185.338 756.89 185.134 756.206 185.134C755.618 185.134 755.108 185.284 754.676 185.584C754.256 185.872 753.992 186.298 753.884 186.862H752.336C752.396 186.214 752.612 185.668 752.984 185.224C753.368 184.78 753.842 184.444 754.406 184.216C754.97 183.976 755.57 183.856 756.206 183.856C757.454 183.856 758.39 184.192 759.014 184.864C759.65 185.524 759.968 186.406 759.968 187.51V193H758.618L758.528 191.398C758.276 191.902 757.904 192.334 757.412 192.694C756.932 193.042 756.284 193.216 755.468 193.216ZM755.702 191.938C756.278 191.938 756.77 191.788 757.178 191.488C757.598 191.188 757.916 190.798 758.132 190.318C758.348 189.838 758.456 189.334 758.456 188.806V188.788H756.17C755.282 188.788 754.652 188.944 754.28 189.256C753.92 189.556 753.74 189.934 753.74 190.39C753.74 190.858 753.908 191.236 754.244 191.524C754.592 191.8 755.078 191.938 755.702 191.938ZM762.236 193V184.072H763.604L763.694 185.674C763.982 185.11 764.396 184.666 764.936 184.342C765.476 184.018 766.088 183.856 766.772 183.856C767.828 183.856 768.668 184.18 769.292 184.828C769.928 185.464 770.246 186.448 770.246 187.78V193H768.734V187.942C768.734 186.082 767.966 185.152 766.43 185.152C765.662 185.152 765.02 185.434 764.504 185.998C764 186.55 763.748 187.342 763.748 188.374V193H762.236ZM776.065 190.192C775.561 190.192 775.099 190.126 774.679 189.994L773.779 190.84C773.911 190.936 774.073 191.02 774.265 191.092C774.469 191.152 774.757 191.212 775.129 191.272C775.501 191.32 776.023 191.374 776.695 191.434C777.895 191.518 778.753 191.794 779.269 192.262C779.785 192.73 780.043 193.342 780.043 194.098C780.043 194.614 779.899 195.106 779.611 195.574C779.335 196.042 778.903 196.426 778.315 196.726C777.739 197.026 776.995 197.176 776.083 197.176C775.279 197.176 774.565 197.068 773.941 196.852C773.317 196.648 772.831 196.33 772.483 195.898C772.135 195.478 771.961 194.944 771.961 194.296C771.961 193.96 772.051 193.594 772.231 193.198C772.411 192.814 772.747 192.448 773.239 192.1C772.975 191.992 772.747 191.878 772.555 191.758C772.375 191.626 772.207 191.482 772.051 191.326V190.912L773.581 189.4C772.873 188.8 772.519 188.008 772.519 187.024C772.519 186.436 772.657 185.902 772.933 185.422C773.209 184.942 773.611 184.564 774.139 184.288C774.667 184 775.309 183.856 776.065 183.856C776.581 183.856 777.049 183.928 777.469 184.072H780.763V185.206L779.089 185.278C779.437 185.782 779.611 186.364 779.611 187.024C779.611 187.612 779.467 188.146 779.179 188.626C778.903 189.106 778.501 189.49 777.973 189.778C777.457 190.054 776.821 190.192 776.065 190.192ZM776.065 188.95C776.701 188.95 777.205 188.788 777.577 188.464C777.961 188.128 778.153 187.648 778.153 187.024C778.153 186.412 777.961 185.944 777.577 185.62C777.205 185.284 776.701 185.116 776.065 185.116C775.417 185.116 774.901 185.284 774.517 185.62C774.145 185.944 773.959 186.412 773.959 187.024C773.959 187.648 774.145 188.128 774.517 188.464C774.901 188.788 775.417 188.95 776.065 188.95ZM773.437 194.152C773.437 194.752 773.689 195.196 774.193 195.484C774.697 195.784 775.327 195.934 776.083 195.934C776.827 195.934 777.421 195.772 777.865 195.448C778.321 195.124 778.549 194.692 778.549 194.152C778.549 193.768 778.393 193.432 778.081 193.144C777.769 192.868 777.193 192.706 776.353 192.658C775.693 192.61 775.123 192.55 774.643 192.478C774.151 192.742 773.827 193.024 773.671 193.324C773.515 193.636 773.437 193.912 773.437 194.152ZM786.131 193.216C785.279 193.216 784.523 193.024 783.863 192.64C783.203 192.244 782.681 191.698 782.297 191.002C781.925 190.306 781.739 189.484 781.739 188.536C781.739 187.6 781.925 186.784 782.297 186.088C782.669 185.38 783.185 184.834 783.845 184.45C784.517 184.054 785.291 183.856 786.167 183.856C787.031 183.856 787.775 184.054 788.399 184.45C789.035 184.834 789.521 185.344 789.857 185.98C790.193 186.616 790.361 187.3 790.361 188.032C790.361 188.164 790.355 188.296 790.343 188.428C790.343 188.56 790.343 188.71 790.343 188.878H783.233C783.269 189.562 783.425 190.132 783.701 190.588C783.989 191.032 784.343 191.368 784.763 191.596C785.195 191.824 785.651 191.938 786.131 191.938C786.755 191.938 787.277 191.794 787.697 191.506C788.117 191.218 788.423 190.828 788.615 190.336H790.109C789.869 191.164 789.407 191.854 788.723 192.406C788.051 192.946 787.187 193.216 786.131 193.216ZM786.131 185.134C785.411 185.134 784.769 185.356 784.205 185.8C783.653 186.232 783.335 186.868 783.251 187.708H788.867C788.831 186.904 788.555 186.274 788.039 185.818C787.523 185.362 786.887 185.134 786.131 185.134ZM792.365 193V180.04H793.877V193H792.365ZM800.423 193.216C799.583 193.216 798.827 193.024 798.155 192.64C797.483 192.256 796.949 191.716 796.553 191.02C796.169 190.312 795.977 189.484 795.977 188.536C795.977 187.588 796.175 186.766 796.571 186.07C796.967 185.362 797.501 184.816 798.173 184.432C798.857 184.048 799.619 183.856 800.459 183.856C801.299 183.856 802.055 184.048 802.727 184.432C803.399 184.816 803.927 185.362 804.311 186.07C804.707 186.766 804.905 187.588 804.905 188.536C804.905 189.484 804.707 190.312 804.311 191.02C803.915 191.716 803.375 192.256 802.691 192.64C802.019 193.024 801.263 193.216 800.423 193.216ZM800.423 191.92C800.939 191.92 801.419 191.794 801.863 191.542C802.307 191.29 802.667 190.912 802.943 190.408C803.219 189.904 803.357 189.28 803.357 188.536C803.357 187.792 803.219 187.168 802.943 186.664C802.679 186.16 802.325 185.782 801.881 185.53C801.437 185.278 800.963 185.152 800.459 185.152C799.943 185.152 799.463 185.278 799.019 185.53C798.575 185.782 798.215 186.16 797.939 186.664C797.663 187.168 797.525 187.792 797.525 188.536C797.525 189.28 797.663 189.904 797.939 190.408C798.215 190.912 798.569 191.29 799.001 191.542C799.445 191.794 799.919 191.92 800.423 191.92ZM810.149 190.192C809.645 190.192 809.183 190.126 808.763 189.994L807.863 190.84C807.995 190.936 808.157 191.02 808.349 191.092C808.553 191.152 808.841 191.212 809.213 191.272C809.585 191.32 810.107 191.374 810.779 191.434C811.979 191.518 812.837 191.794 813.353 192.262C813.869 192.73 814.127 193.342 814.127 194.098C814.127 194.614 813.983 195.106 813.695 195.574C813.419 196.042 812.987 196.426 812.399 196.726C811.823 197.026 811.079 197.176 810.167 197.176C809.363 197.176 808.649 197.068 808.025 196.852C807.401 196.648 806.915 196.33 806.567 195.898C806.219 195.478 806.045 194.944 806.045 194.296C806.045 193.96 806.135 193.594 806.315 193.198C806.495 192.814 806.831 192.448 807.323 192.1C807.059 191.992 806.831 191.878 806.639 191.758C806.459 191.626 806.291 191.482 806.135 191.326V190.912L807.665 189.4C806.957 188.8 806.603 188.008 806.603 187.024C806.603 186.436 806.741 185.902 807.017 185.422C807.293 184.942 807.695 184.564 808.223 184.288C808.751 184 809.393 183.856 810.149 183.856C810.665 183.856 811.133 183.928 811.553 184.072H814.847V185.206L813.173 185.278C813.521 185.782 813.695 186.364 813.695 187.024C813.695 187.612 813.551 188.146 813.263 188.626C812.987 189.106 812.585 189.49 812.057 189.778C811.541 190.054 810.905 190.192 810.149 190.192ZM810.149 188.95C810.785 188.95 811.289 188.788 811.661 188.464C812.045 188.128 812.237 187.648 812.237 187.024C812.237 186.412 812.045 185.944 811.661 185.62C811.289 185.284 810.785 185.116 810.149 185.116C809.501 185.116 808.985 185.284 808.601 185.62C808.229 185.944 808.043 186.412 808.043 187.024C808.043 187.648 808.229 188.128 808.601 188.464C808.985 188.788 809.501 188.95 810.149 188.95ZM807.521 194.152C807.521 194.752 807.773 195.196 808.277 195.484C808.781 195.784 809.411 195.934 810.167 195.934C810.911 195.934 811.505 195.772 811.949 195.448C812.405 195.124 812.633 194.692 812.633 194.152C812.633 193.768 812.477 193.432 812.165 193.144C811.853 192.868 811.277 192.706 810.437 192.658C809.777 192.61 809.207 192.55 808.727 192.478C808.235 192.742 807.911 193.024 807.755 193.324C807.599 193.636 807.521 193.912 807.521 194.152Z" fill="white"/>
<path d="M729.332 267V254.4H733.472C734.456 254.4 735.266 254.562 735.902 254.886C736.538 255.21 737.006 255.648 737.306 256.2C737.618 256.752 737.774 257.376 737.774 258.072C737.774 258.756 737.624 259.374 737.324 259.926C737.024 260.478 736.556 260.922 735.92 261.258C735.284 261.582 734.468 261.744 733.472 261.744H730.844V267H729.332ZM730.844 260.466H733.436C734.444 260.466 735.158 260.256 735.578 259.836C736.01 259.404 736.226 258.816 736.226 258.072C736.226 257.316 736.01 256.728 735.578 256.308C735.158 255.876 734.444 255.66 733.436 255.66H730.844V260.466ZM743.206 267.216C742.366 267.216 741.61 267.024 740.938 266.64C740.266 266.256 739.732 265.716 739.336 265.02C738.952 264.312 738.76 263.484 738.76 262.536C738.76 261.588 738.958 260.766 739.354 260.07C739.75 259.362 740.284 258.816 740.956 258.432C741.64 258.048 742.402 257.856 743.242 257.856C744.082 257.856 744.838 258.048 745.51 258.432C746.182 258.816 746.71 259.362 747.094 260.07C747.49 260.766 747.688 261.588 747.688 262.536C747.688 263.484 747.49 264.312 747.094 265.02C746.698 265.716 746.158 266.256 745.474 266.64C744.802 267.024 744.046 267.216 743.206 267.216ZM743.206 265.92C743.722 265.92 744.202 265.794 744.646 265.542C745.09 265.29 745.45 264.912 745.726 264.408C746.002 263.904 746.14 263.28 746.14 262.536C746.14 261.792 746.002 261.168 745.726 260.664C745.462 260.16 745.108 259.782 744.664 259.53C744.22 259.278 743.746 259.152 743.242 259.152C742.726 259.152 742.246 259.278 741.802 259.53C741.358 259.782 740.998 260.16 740.722 260.664C740.446 261.168 740.308 261.792 740.308 262.536C740.308 263.28 740.446 263.904 740.722 264.408C740.998 264.912 741.352 265.29 741.784 265.542C742.228 265.794 742.702 265.92 743.206 265.92ZM751.257 267L748.647 258.072H750.159L752.049 265.074L754.137 258.072H755.847L757.953 265.074L759.825 258.072H761.355L758.745 267H757.197L755.001 259.638L752.805 267H751.257ZM766.707 267.216C765.855 267.216 765.099 267.024 764.439 266.64C763.779 266.244 763.257 265.698 762.873 265.002C762.501 264.306 762.315 263.484 762.315 262.536C762.315 261.6 762.501 260.784 762.873 260.088C763.245 259.38 763.761 258.834 764.421 258.45C765.093 258.054 765.867 257.856 766.743 257.856C767.607 257.856 768.351 258.054 768.975 258.45C769.611 258.834 770.097 259.344 770.433 259.98C770.769 260.616 770.937 261.3 770.937 262.032C770.937 262.164 770.931 262.296 770.919 262.428C770.919 262.56 770.919 262.71 770.919 262.878H763.809C763.845 263.562 764.001 264.132 764.277 264.588C764.565 265.032 764.919 265.368 765.339 265.596C765.771 265.824 766.227 265.938 766.707 265.938C767.331 265.938 767.853 265.794 768.273 265.506C768.693 265.218 768.999 264.828 769.191 264.336H770.685C770.445 265.164 769.983 265.854 769.299 266.406C768.627 266.946 767.763 267.216 766.707 267.216ZM766.707 259.134C765.987 259.134 765.345 259.356 764.781 259.8C764.229 260.232 763.911 260.868 763.827 261.708H769.443C769.407 260.904 769.131 260.274 768.615 259.818C768.099 259.362 767.463 259.134 766.707 259.134ZM772.941 267V258.072H774.309L774.435 259.782C774.711 259.194 775.131 258.726 775.695 258.378C776.259 258.03 776.955 257.856 777.783 257.856V259.44H777.369C776.841 259.44 776.355 259.536 775.911 259.728C775.467 259.908 775.113 260.22 774.849 260.664C774.585 261.108 774.453 261.72 774.453 262.5V267H772.941ZM783.16 267.216C782.308 267.216 781.552 267.024 780.892 266.64C780.232 266.244 779.71 265.698 779.326 265.002C778.954 264.306 778.768 263.484 778.768 262.536C778.768 261.6 778.954 260.784 779.326 260.088C779.698 259.38 780.214 258.834 780.874 258.45C781.546 258.054 782.32 257.856 783.196 257.856C784.06 257.856 784.804 258.054 785.428 258.45C786.064 258.834 786.55 259.344 786.886 259.98C787.222 260.616 787.39 261.3 787.39 262.032C787.39 262.164 787.384 262.296 787.372 262.428C787.372 262.56 787.372 262.71 787.372 262.878H780.262C780.298 263.562 780.454 264.132 780.73 264.588C781.018 265.032 781.372 265.368 781.792 265.596C782.224 265.824 782.68 265.938 783.16 265.938C783.784 265.938 784.306 265.794 784.726 265.506C785.146 265.218 785.452 264.828 785.644 264.336H787.138C786.898 265.164 786.436 265.854 785.752 266.406C785.08 266.946 784.216 267.216 783.16 267.216ZM783.16 259.134C782.44 259.134 781.798 259.356 781.234 259.8C780.682 260.232 780.364 260.868 780.28 261.708H785.896C785.86 260.904 785.584 260.274 785.068 259.818C784.552 259.362 783.916 259.134 783.16 259.134ZM793.444 267.216C792.556 267.216 791.776 267.012 791.104 266.604C790.444 266.196 789.928 265.638 789.556 264.93C789.196 264.222 789.016 263.418 789.016 262.518C789.016 261.618 789.202 260.82 789.574 260.124C789.946 259.416 790.462 258.864 791.122 258.468C791.782 258.06 792.562 257.856 793.462 257.856C794.194 257.856 794.842 258.006 795.406 258.306C795.97 258.606 796.408 259.026 796.72 259.566V254.04H798.232V267H796.864L796.72 265.524C796.432 265.956 796.018 266.346 795.478 266.694C794.938 267.042 794.26 267.216 793.444 267.216ZM793.606 265.902C794.206 265.902 794.734 265.764 795.19 265.488C795.658 265.2 796.018 264.804 796.27 264.3C796.534 263.796 796.666 263.208 796.666 262.536C796.666 261.864 796.534 261.276 796.27 260.772C796.018 260.268 795.658 259.878 795.19 259.602C794.734 259.314 794.206 259.17 793.606 259.17C793.018 259.17 792.49 259.314 792.022 259.602C791.566 259.878 791.206 260.268 790.942 260.772C790.69 261.276 790.564 261.864 790.564 262.536C790.564 263.208 790.69 263.796 790.942 264.3C791.206 264.804 791.566 265.2 792.022 265.488C792.49 265.764 793.018 265.902 793.606 265.902ZM810.231 267.216C809.499 267.216 808.845 267.066 808.269 266.766C807.705 266.466 807.273 266.046 806.973 265.506L806.829 267H805.461V254.04H806.973V259.548C807.261 259.116 807.669 258.726 808.197 258.378C808.737 258.03 809.421 257.856 810.249 257.856C811.137 257.856 811.911 258.06 812.571 258.468C813.231 258.876 813.741 259.434 814.101 260.142C814.473 260.85 814.659 261.654 814.659 262.554C814.659 263.454 814.473 264.258 814.101 264.966C813.741 265.662 813.225 266.214 812.553 266.622C811.893 267.018 811.119 267.216 810.231 267.216ZM810.069 265.902C810.669 265.902 811.197 265.764 811.653 265.488C812.109 265.2 812.469 264.804 812.733 264.3C812.997 263.796 813.129 263.208 813.129 262.536C813.129 261.864 812.997 261.276 812.733 260.772C812.469 260.268 812.109 259.878 811.653 259.602C811.197 259.314 810.669 259.17 810.069 259.17C809.469 259.17 808.941 259.314 808.485 259.602C808.029 259.878 807.669 260.268 807.405 260.772C807.141 261.276 807.009 261.864 807.009 262.536C807.009 263.208 807.141 263.796 807.405 264.3C807.669 264.804 808.029 265.2 808.485 265.488C808.941 265.764 809.469 265.902 810.069 265.902ZM817.015 270.96L819.229 266.136H818.707L815.161 258.072H816.799L819.751 265.02L822.883 258.072H824.449L818.599 270.96H817.015ZM833.49 267.018L830.034 254.4H831.654L834.372 265.218L837.468 254.4H839.142L842.148 265.218L844.902 254.4H846.522L842.994 267H841.266L838.26 256.596L835.182 267L833.49 267.018ZM851.311 267.216C850.459 267.216 849.703 267.024 849.043 266.64C848.383 266.244 847.861 265.698 847.477 265.002C847.105 264.306 846.919 263.484 846.919 262.536C846.919 261.6 847.105 260.784 847.477 260.088C847.849 259.38 848.365 258.834 849.025 258.45C849.697 258.054 850.471 257.856 851.347 257.856C852.211 257.856 852.955 258.054 853.579 258.45C854.215 258.834 854.701 259.344 855.037 259.98C855.373 260.616 855.541 261.3 855.541 262.032C855.541 262.164 855.535 262.296 855.523 262.428C855.523 262.56 855.523 262.71 855.523 262.878H848.413C848.449 263.562 848.605 264.132 848.881 264.588C849.169 265.032 849.523 265.368 849.943 265.596C850.375 265.824 850.831 265.938 851.311 265.938C851.935 265.938 852.457 265.794 852.877 265.506C853.297 265.218 853.603 264.828 853.795 264.336H855.289C855.049 265.164 854.587 265.854 853.903 266.406C853.231 266.946 852.367 267.216 851.311 267.216ZM851.311 259.134C850.591 259.134 849.949 259.356 849.385 259.8C848.833 260.232 848.515 260.868 848.431 261.708H854.047C854.011 260.904 853.735 260.274 853.219 259.818C852.703 259.362 852.067 259.134 851.311 259.134ZM862.315 267.216C861.583 267.216 860.929 267.066 860.353 266.766C859.789 266.466 859.357 266.046 859.057 265.506L858.913 267H857.545V254.04H859.057V259.548C859.345 259.116 859.753 258.726 860.281 258.378C860.821 258.03 861.505 257.856 862.333 257.856C863.221 257.856 863.995 258.06 864.655 258.468C865.315 258.876 865.825 259.434 866.185 260.142C866.557 260.85 866.743 261.654 866.743 262.554C866.743 263.454 866.557 264.258 866.185 264.966C865.825 265.662 865.309 266.214 864.637 266.622C863.977 267.018 863.203 267.216 862.315 267.216ZM862.153 265.902C862.753 265.902 863.281 265.764 863.737 265.488C864.193 265.2 864.553 264.804 864.817 264.3C865.081 263.796 865.213 263.208 865.213 262.536C865.213 261.864 865.081 261.276 864.817 260.772C864.553 260.268 864.193 259.878 863.737 259.602C863.281 259.314 862.753 259.17 862.153 259.17C861.553 259.17 861.025 259.314 860.569 259.602C860.113 259.878 859.753 260.268 859.489 260.772C859.225 261.276 859.093 261.864 859.093 262.536C859.093 263.208 859.225 263.796 859.489 264.3C859.753 264.804 860.113 265.2 860.569 265.488C861.025 265.764 861.553 265.902 862.153 265.902ZM869.333 267V259.35H867.983V258.072H869.333V256.524C869.333 255.66 869.549 255.03 869.981 254.634C870.413 254.238 871.043 254.04 871.871 254.04H872.771V255.336H872.105C871.649 255.336 871.325 255.432 871.133 255.624C870.941 255.804 870.845 256.116 870.845 256.56V258.072H873.041V259.35H870.845V267H869.333ZM874.841 267V254.04H876.353V267H874.841ZM882.9 267.216C882.06 267.216 881.304 267.024 880.632 266.64C879.96 266.256 879.426 265.716 879.03 265.02C878.646 264.312 878.454 263.484 878.454 262.536C878.454 261.588 878.652 260.766 879.048 260.07C879.444 259.362 879.978 258.816 880.65 258.432C881.334 258.048 882.096 257.856 882.936 257.856C883.776 257.856 884.532 258.048 885.204 258.432C885.876 258.816 886.404 259.362 886.788 260.07C887.184 260.766 887.382 261.588 887.382 262.536C887.382 263.484 887.184 264.312 886.788 265.02C886.392 265.716 885.852 266.256 885.168 266.64C884.496 267.024 883.74 267.216 882.9 267.216ZM882.9 265.92C883.416 265.92 883.896 265.794 884.34 265.542C884.784 265.29 885.144 264.912 885.42 264.408C885.696 263.904 885.834 263.28 885.834 262.536C885.834 261.792 885.696 261.168 885.42 260.664C885.156 260.16 884.802 259.782 884.358 259.53C883.914 259.278 883.44 259.152 882.936 259.152C882.42 259.152 881.94 259.278 881.496 259.53C881.052 259.782 880.692 260.16 880.416 260.664C880.14 261.168 880.002 261.792 880.002 262.536C880.002 263.28 880.14 263.904 880.416 264.408C880.692 264.912 881.046 265.29 881.478 265.542C881.922 265.794 882.396 265.92 882.9 265.92ZM890.95 267L888.34 258.072H889.852L891.742 265.074L893.83 258.072H895.54L897.646 265.074L899.518 258.072H901.048L898.438 267H896.89L894.694 259.638L892.498 267H890.95Z" fill="white"/>
<path d="M729.258 155V143.1H730.686V155H729.258ZM733.124 155V146.568H734.416L734.501 148.081C734.773 147.548 735.164 147.129 735.674 146.823C736.184 146.517 736.762 146.364 737.408 146.364C738.406 146.364 739.199 146.67 739.788 147.282C740.389 147.883 740.689 148.812 740.689 150.07V155H739.261V150.223C739.261 148.466 738.536 147.588 737.085 147.588C736.36 147.588 735.754 147.854 735.266 148.387C734.79 148.908 734.552 149.656 734.552 150.631V155H733.124ZM746.083 155.204C745.074 155.204 744.235 154.949 743.567 154.439C742.898 153.929 742.507 153.238 742.394 152.365H743.856C743.946 152.807 744.179 153.192 744.553 153.521C744.938 153.838 745.454 153.997 746.1 153.997C746.7 153.997 747.142 153.872 747.426 153.623C747.709 153.362 747.851 153.056 747.851 152.705C747.851 152.195 747.664 151.855 747.29 151.685C746.927 151.515 746.411 151.362 745.743 151.226C745.289 151.135 744.836 151.005 744.383 150.835C743.929 150.665 743.55 150.427 743.244 150.121C742.938 149.804 742.785 149.39 742.785 148.88C742.785 148.143 743.057 147.543 743.601 147.078C744.156 146.602 744.904 146.364 745.845 146.364C746.74 146.364 747.471 146.591 748.038 147.044C748.616 147.486 748.95 148.121 749.041 148.948H747.63C747.573 148.517 747.386 148.183 747.069 147.945C746.763 147.696 746.349 147.571 745.828 147.571C745.318 147.571 744.921 147.679 744.638 147.894C744.366 148.109 744.23 148.393 744.23 148.744C744.23 149.084 744.405 149.35 744.757 149.543C745.119 149.736 745.607 149.9 746.219 150.036C746.74 150.149 747.233 150.291 747.698 150.461C748.174 150.62 748.559 150.863 748.854 151.192C749.16 151.509 749.313 151.974 749.313 152.586C749.324 153.345 749.035 153.974 748.446 154.473C747.868 154.96 747.08 155.204 746.083 155.204ZM754.303 155C753.532 155 752.926 154.813 752.484 154.439C752.042 154.065 751.821 153.391 751.821 152.416V147.775H750.359V146.568H751.821L752.008 144.545H753.249V146.568H755.731V147.775H753.249V152.416C753.249 152.949 753.357 153.311 753.572 153.504C753.787 153.685 754.167 153.776 754.711 153.776H755.595V155H754.303ZM757.545 155V146.568H758.837L758.956 148.183C759.217 147.628 759.613 147.186 760.146 146.857C760.679 146.528 761.336 146.364 762.118 146.364V147.86H761.727C761.228 147.86 760.769 147.951 760.35 148.132C759.931 148.302 759.596 148.597 759.347 149.016C759.098 149.435 758.973 150.013 758.973 150.75V155H757.545ZM766.798 155.204C765.801 155.204 765.007 154.904 764.418 154.303C763.829 153.691 763.534 152.756 763.534 151.498V146.568H764.962V151.345C764.962 153.102 765.682 153.98 767.121 153.98C767.858 153.98 768.464 153.719 768.94 153.198C769.427 152.665 769.671 151.912 769.671 150.937V146.568H771.099V155H769.807L769.705 153.487C769.444 154.02 769.053 154.439 768.532 154.745C768.022 155.051 767.444 155.204 766.798 155.204ZM777.325 155.204C776.521 155.204 775.795 155.023 775.149 154.66C774.515 154.286 774.01 153.77 773.636 153.113C773.274 152.444 773.092 151.668 773.092 150.784C773.092 149.9 773.274 149.129 773.636 148.472C774.01 147.803 774.515 147.288 775.149 146.925C775.795 146.551 776.521 146.364 777.325 146.364C778.323 146.364 779.161 146.625 779.841 147.146C780.533 147.667 780.969 148.364 781.15 149.237H779.688C779.575 148.716 779.297 148.313 778.855 148.03C778.413 147.735 777.898 147.588 777.308 147.588C776.832 147.588 776.385 147.707 775.965 147.945C775.546 148.183 775.206 148.54 774.945 149.016C774.685 149.492 774.554 150.081 774.554 150.784C774.554 151.487 774.685 152.076 774.945 152.552C775.206 153.028 775.546 153.391 775.965 153.64C776.385 153.878 776.832 153.997 777.308 153.997C777.898 153.997 778.413 153.855 778.855 153.572C779.297 153.277 779.575 152.864 779.688 152.331H781.15C780.98 153.181 780.55 153.872 779.858 154.405C779.167 154.938 778.323 155.204 777.325 155.204ZM786.244 155C785.474 155 784.867 154.813 784.425 154.439C783.983 154.065 783.762 153.391 783.762 152.416V147.775H782.3V146.568H783.762L783.949 144.545H785.19V146.568H787.672V147.775H785.19V152.416C785.19 152.949 785.298 153.311 785.513 153.504C785.729 153.685 786.108 153.776 786.652 153.776H787.536V155H786.244ZM790.353 144.698C790.07 144.698 789.832 144.607 789.639 144.426C789.458 144.233 789.367 143.995 789.367 143.712C789.367 143.44 789.458 143.213 789.639 143.032C789.832 142.851 790.07 142.76 790.353 142.76C790.625 142.76 790.858 142.851 791.05 143.032C791.243 143.213 791.339 143.44 791.339 143.712C791.339 143.995 791.243 144.233 791.05 144.426C790.858 144.607 790.625 144.698 790.353 144.698ZM789.639 155V146.568H791.067V155H789.639ZM797.396 155.204C796.603 155.204 795.889 155.023 795.254 154.66C794.619 154.297 794.115 153.787 793.741 153.13C793.378 152.461 793.197 151.679 793.197 150.784C793.197 149.889 793.384 149.112 793.758 148.455C794.132 147.786 794.636 147.271 795.271 146.908C795.917 146.545 796.637 146.364 797.43 146.364C798.223 146.364 798.937 146.545 799.572 146.908C800.207 147.271 800.705 147.786 801.068 148.455C801.442 149.112 801.629 149.889 801.629 150.784C801.629 151.679 801.442 152.461 801.068 153.13C800.694 153.787 800.184 154.297 799.538 154.66C798.903 155.023 798.189 155.204 797.396 155.204ZM797.396 153.98C797.883 153.98 798.337 153.861 798.756 153.623C799.175 153.385 799.515 153.028 799.776 152.552C800.037 152.076 800.167 151.487 800.167 150.784C800.167 150.081 800.037 149.492 799.776 149.016C799.527 148.54 799.192 148.183 798.773 147.945C798.354 147.707 797.906 147.588 797.43 147.588C796.943 147.588 796.489 147.707 796.07 147.945C795.651 148.183 795.311 148.54 795.05 149.016C794.789 149.492 794.659 150.081 794.659 150.784C794.659 151.487 794.789 152.076 795.05 152.552C795.311 153.028 795.645 153.385 796.053 153.623C796.472 153.861 796.92 153.98 797.396 153.98ZM803.614 155V146.568H804.906L804.991 148.081C805.263 147.548 805.654 147.129 806.164 146.823C806.674 146.517 807.252 146.364 807.898 146.364C808.896 146.364 809.689 146.67 810.278 147.282C810.879 147.883 811.179 148.812 811.179 150.07V155H809.751V150.223C809.751 148.466 809.026 147.588 807.575 147.588C806.85 147.588 806.244 147.854 805.756 148.387C805.28 148.908 805.042 149.656 805.042 150.631V155H803.614ZM816.573 155.204C815.564 155.204 814.726 154.949 814.057 154.439C813.388 153.929 812.997 153.238 812.884 152.365H814.346C814.437 152.807 814.669 153.192 815.043 153.521C815.428 153.838 815.944 153.997 816.59 153.997C817.191 153.997 817.633 153.872 817.916 153.623C818.199 153.362 818.341 153.056 818.341 152.705C818.341 152.195 818.154 151.855 817.78 151.685C817.417 151.515 816.902 151.362 816.233 151.226C815.78 151.135 815.326 151.005 814.873 150.835C814.42 150.665 814.04 150.427 813.734 150.121C813.428 149.804 813.275 149.39 813.275 148.88C813.275 148.143 813.547 147.543 814.091 147.078C814.646 146.602 815.394 146.364 816.335 146.364C817.23 146.364 817.961 146.591 818.528 147.044C819.106 147.486 819.44 148.121 819.531 148.948H818.12C818.063 148.517 817.876 148.183 817.559 147.945C817.253 147.696 816.839 147.571 816.318 147.571C815.808 147.571 815.411 147.679 815.128 147.894C814.856 148.109 814.72 148.393 814.72 148.744C814.72 149.084 814.896 149.35 815.247 149.543C815.61 149.736 816.097 149.9 816.709 150.036C817.23 150.149 817.723 150.291 818.188 150.461C818.664 150.62 819.049 150.863 819.344 151.192C819.65 151.509 819.803 151.974 819.803 152.586C819.814 153.345 819.525 153.974 818.936 154.473C818.358 154.96 817.57 155.204 816.573 155.204Z" fill="white"/>
<path d="M729.258 303V291.1H730.686V301.861H736.228V303H729.258ZM738.972 292.698C738.688 292.698 738.45 292.607 738.258 292.426C738.076 292.233 737.986 291.995 737.986 291.712C737.986 291.44 738.076 291.213 738.258 291.032C738.45 290.851 738.688 290.76 738.972 290.76C739.244 290.76 739.476 290.851 739.669 291.032C739.861 291.213 739.958 291.44 739.958 291.712C739.958 291.995 739.861 292.233 739.669 292.426C739.476 292.607 739.244 292.698 738.972 292.698ZM738.258 303V294.568H739.686V303H738.258ZM746.048 303.204C745.243 303.204 744.518 303.023 743.872 302.66C743.237 302.286 742.733 301.77 742.359 301.113C741.996 300.444 741.815 299.668 741.815 298.784C741.815 297.9 741.996 297.129 742.359 296.472C742.733 295.803 743.237 295.288 743.872 294.925C744.518 294.551 745.243 294.364 746.048 294.364C747.045 294.364 747.884 294.625 748.564 295.146C749.255 295.667 749.692 296.364 749.873 297.237H748.411C748.298 296.716 748.02 296.313 747.578 296.03C747.136 295.735 746.62 295.588 746.031 295.588C745.555 295.588 745.107 295.707 744.688 295.945C744.269 296.183 743.929 296.54 743.668 297.016C743.407 297.492 743.277 298.081 743.277 298.784C743.277 299.487 743.407 300.076 743.668 300.552C743.929 301.028 744.269 301.391 744.688 301.64C745.107 301.878 745.555 301.997 746.031 301.997C746.62 301.997 747.136 301.855 747.578 301.572C748.02 301.277 748.298 300.864 748.411 300.331H749.873C749.703 301.181 749.272 301.872 748.581 302.405C747.89 302.938 747.045 303.204 746.048 303.204ZM755.658 303.204C754.854 303.204 754.14 303.023 753.516 302.66C752.893 302.286 752.4 301.77 752.037 301.113C751.686 300.456 751.51 299.679 751.51 298.784C751.51 297.9 751.686 297.129 752.037 296.472C752.389 295.803 752.876 295.288 753.499 294.925C754.134 294.551 754.865 294.364 755.692 294.364C756.508 294.364 757.211 294.551 757.8 294.925C758.401 295.288 758.86 295.769 759.177 296.37C759.495 296.971 759.653 297.617 759.653 298.308C759.653 298.433 759.648 298.557 759.636 298.682C759.636 298.807 759.636 298.948 759.636 299.107H752.921C752.955 299.753 753.103 300.291 753.363 300.722C753.635 301.141 753.97 301.459 754.366 301.674C754.774 301.889 755.205 301.997 755.658 301.997C756.248 301.997 756.741 301.861 757.137 301.589C757.534 301.317 757.823 300.949 758.004 300.484H759.415C759.189 301.266 758.752 301.918 758.106 302.439C757.472 302.949 756.656 303.204 755.658 303.204ZM755.658 295.571C754.978 295.571 754.372 295.781 753.839 296.2C753.318 296.608 753.018 297.209 752.938 298.002H758.242C758.208 297.243 757.948 296.648 757.46 296.217C756.973 295.786 756.372 295.571 755.658 295.571ZM761.546 303V294.568H762.838L762.923 296.081C763.195 295.548 763.586 295.129 764.096 294.823C764.606 294.517 765.184 294.364 765.83 294.364C766.827 294.364 767.621 294.67 768.21 295.282C768.811 295.883 769.111 296.812 769.111 298.07V303H767.683V298.223C767.683 296.466 766.958 295.588 765.507 295.588C764.782 295.588 764.175 295.854 763.688 296.387C763.212 296.908 762.974 297.656 762.974 298.631V303H761.546ZM774.505 303.204C773.496 303.204 772.657 302.949 771.989 302.439C771.32 301.929 770.929 301.238 770.816 300.365H772.278C772.368 300.807 772.601 301.192 772.975 301.521C773.36 301.838 773.876 301.997 774.522 301.997C775.122 301.997 775.564 301.872 775.848 301.623C776.131 301.362 776.273 301.056 776.273 300.705C776.273 300.195 776.086 299.855 775.712 299.685C775.349 299.515 774.833 299.362 774.165 299.226C773.711 299.135 773.258 299.005 772.805 298.835C772.351 298.665 771.972 298.427 771.666 298.121C771.36 297.804 771.207 297.39 771.207 296.88C771.207 296.143 771.479 295.543 772.023 295.078C772.578 294.602 773.326 294.364 774.267 294.364C775.162 294.364 775.893 294.591 776.46 295.044C777.038 295.486 777.372 296.121 777.463 296.948H776.052C775.995 296.517 775.808 296.183 775.491 295.945C775.185 295.696 774.771 295.571 774.25 295.571C773.74 295.571 773.343 295.679 773.06 295.894C772.788 296.109 772.652 296.393 772.652 296.744C772.652 297.084 772.827 297.35 773.179 297.543C773.541 297.736 774.029 297.9 774.641 298.036C775.162 298.149 775.655 298.291 776.12 298.461C776.596 298.62 776.981 298.863 777.276 299.192C777.582 299.509 777.735 299.974 777.735 300.586C777.746 301.345 777.457 301.974 776.868 302.473C776.29 302.96 775.502 303.204 774.505 303.204ZM783.566 303.204C782.761 303.204 782.047 303.023 781.424 302.66C780.8 302.286 780.307 301.77 779.945 301.113C779.593 300.456 779.418 299.679 779.418 298.784C779.418 297.9 779.593 297.129 779.945 296.472C780.296 295.803 780.783 295.288 781.407 294.925C782.041 294.551 782.772 294.364 783.6 294.364C784.416 294.364 785.118 294.551 785.708 294.925C786.308 295.288 786.767 295.769 787.085 296.37C787.402 296.971 787.561 297.617 787.561 298.308C787.561 298.433 787.555 298.557 787.544 298.682C787.544 298.807 787.544 298.948 787.544 299.107H780.829C780.863 299.753 781.01 300.291 781.271 300.722C781.543 301.141 781.877 301.459 782.274 301.674C782.682 301.889 783.112 301.997 783.566 301.997C784.155 301.997 784.648 301.861 785.045 301.589C785.441 301.317 785.73 300.949 785.912 300.484H787.323C787.096 301.266 786.66 301.918 786.014 302.439C785.379 302.949 784.563 303.204 783.566 303.204ZM783.566 295.571C782.886 295.571 782.279 295.781 781.747 296.2C781.225 296.608 780.925 297.209 780.846 298.002H786.15C786.116 297.243 785.855 296.648 785.368 296.217C784.88 295.786 784.28 295.571 783.566 295.571ZM792.683 303.204C791.675 303.204 790.836 302.949 790.167 302.439C789.499 301.929 789.108 301.238 788.994 300.365H790.456C790.547 300.807 790.779 301.192 791.153 301.521C791.539 301.838 792.054 301.997 792.7 301.997C793.301 301.997 793.743 301.872 794.026 301.623C794.31 301.362 794.451 301.056 794.451 300.705C794.451 300.195 794.264 299.855 793.89 299.685C793.528 299.515 793.012 299.362 792.343 299.226C791.89 299.135 791.437 299.005 790.983 298.835C790.53 298.665 790.15 298.427 789.844 298.121C789.538 297.804 789.385 297.39 789.385 296.88C789.385 296.143 789.657 295.543 790.201 295.078C790.757 294.602 791.505 294.364 792.445 294.364C793.341 294.364 794.072 294.591 794.638 295.044C795.216 295.486 795.551 296.121 795.641 296.948H794.23C794.174 296.517 793.987 296.183 793.669 295.945C793.363 295.696 792.95 295.571 792.428 295.571C791.918 295.571 791.522 295.679 791.238 295.894C790.966 296.109 790.83 296.393 790.83 296.744C790.83 297.084 791.006 297.35 791.357 297.543C791.72 297.736 792.207 297.9 792.819 298.036C793.341 298.149 793.834 298.291 794.298 298.461C794.774 298.62 795.16 298.863 795.454 299.192C795.76 299.509 795.913 299.974 795.913 300.586C795.925 301.345 795.636 301.974 795.046 302.473C794.468 302.96 793.681 303.204 792.683 303.204Z" fill="white"/>
<path d="M734.858 230.216C733.622 230.216 732.554 229.946 731.654 229.406C730.766 228.854 730.076 228.092 729.584 227.12C729.092 226.136 728.846 224.996 728.846 223.7C728.846 222.416 729.092 221.288 729.584 220.316C730.076 219.332 730.766 218.564 731.654 218.012C732.554 217.46 733.622 217.184 734.858 217.184C736.298 217.184 737.468 217.532 738.368 218.228C739.28 218.912 739.862 219.872 740.114 221.108H738.44C738.248 220.328 737.852 219.704 737.252 219.236C736.664 218.756 735.866 218.516 734.858 218.516C733.958 218.516 733.172 218.726 732.5 219.146C731.828 219.554 731.306 220.148 730.934 220.928C730.574 221.696 730.394 222.62 730.394 223.7C730.394 224.78 730.574 225.71 730.934 226.49C731.306 227.258 731.828 227.852 732.5 228.272C733.172 228.68 733.958 228.884 734.858 228.884C735.866 228.884 736.664 228.656 737.252 228.2C737.852 227.732 738.248 227.114 738.44 226.346H740.114C739.862 227.558 739.28 228.506 738.368 229.19C737.468 229.874 736.298 230.216 734.858 230.216ZM742.197 230V221.072H743.565L743.691 222.782C743.967 222.194 744.387 221.726 744.951 221.378C745.515 221.03 746.211 220.856 747.039 220.856V222.44H746.625C746.097 222.44 745.611 222.536 745.167 222.728C744.723 222.908 744.369 223.22 744.105 223.664C743.841 224.108 743.709 224.72 743.709 225.5V230H742.197ZM752.416 230.216C751.564 230.216 750.808 230.024 750.148 229.64C749.488 229.244 748.966 228.698 748.582 228.002C748.21 227.306 748.024 226.484 748.024 225.536C748.024 224.6 748.21 223.784 748.582 223.088C748.954 222.38 749.47 221.834 750.13 221.45C750.802 221.054 751.576 220.856 752.452 220.856C753.316 220.856 754.06 221.054 754.684 221.45C755.32 221.834 755.806 222.344 756.142 222.98C756.478 223.616 756.646 224.3 756.646 225.032C756.646 225.164 756.64 225.296 756.628 225.428C756.628 225.56 756.628 225.71 756.628 225.878H749.518C749.554 226.562 749.71 227.132 749.986 227.588C750.274 228.032 750.628 228.368 751.048 228.596C751.48 228.824 751.936 228.938 752.416 228.938C753.04 228.938 753.562 228.794 753.982 228.506C754.402 228.218 754.708 227.828 754.9 227.336H756.394C756.154 228.164 755.692 228.854 755.008 229.406C754.336 229.946 753.472 230.216 752.416 230.216ZM752.416 222.134C751.696 222.134 751.054 222.356 750.49 222.8C749.938 223.232 749.62 223.868 749.536 224.708H755.152C755.116 223.904 754.84 223.274 754.324 222.818C753.808 222.362 753.172 222.134 752.416 222.134ZM762.7 230.216C761.812 230.216 761.032 230.012 760.36 229.604C759.7 229.196 759.184 228.638 758.812 227.93C758.452 227.222 758.272 226.418 758.272 225.518C758.272 224.618 758.458 223.82 758.83 223.124C759.202 222.416 759.718 221.864 760.378 221.468C761.038 221.06 761.818 220.856 762.718 220.856C763.45 220.856 764.098 221.006 764.662 221.306C765.226 221.606 765.664 222.026 765.976 222.566V217.04H767.488V230H766.12L765.976 228.524C765.688 228.956 765.274 229.346 764.734 229.694C764.194 230.042 763.516 230.216 762.7 230.216ZM762.862 228.902C763.462 228.902 763.99 228.764 764.446 228.488C764.914 228.2 765.274 227.804 765.526 227.3C765.79 226.796 765.922 226.208 765.922 225.536C765.922 224.864 765.79 224.276 765.526 223.772C765.274 223.268 764.914 222.878 764.446 222.602C763.99 222.314 763.462 222.17 762.862 222.17C762.274 222.17 761.746 222.314 761.278 222.602C760.822 222.878 760.462 223.268 760.198 223.772C759.946 224.276 759.82 224.864 759.82 225.536C759.82 226.208 759.946 226.796 760.198 227.3C760.462 227.804 760.822 228.2 761.278 228.488C761.746 228.764 762.274 228.902 762.862 228.902ZM770.871 219.092C770.571 219.092 770.319 218.996 770.115 218.804C769.923 218.6 769.827 218.348 769.827 218.048C769.827 217.76 769.923 217.52 770.115 217.328C770.319 217.136 770.571 217.04 770.871 217.04C771.159 217.04 771.405 217.136 771.609 217.328C771.813 217.52 771.915 217.76 771.915 218.048C771.915 218.348 771.813 218.6 771.609 218.804C771.405 218.996 771.159 219.092 770.871 219.092ZM770.115 230V221.072H771.627V230H770.115ZM777.788 230C776.972 230 776.33 229.802 775.862 229.406C775.394 229.01 775.16 228.296 775.16 227.264V222.35H773.612V221.072H775.16L775.358 218.93H776.672V221.072H779.3V222.35H776.672V227.264C776.672 227.828 776.786 228.212 777.014 228.416C777.242 228.608 777.644 228.704 778.22 228.704H779.156V230H777.788Z" fill="white"/>
<defs>
<linearGradient id="paint0_linear_2_273" x1="1086" y1="100" x2="1086" y2="132" gradientUnits="userSpaceOnUse">
<stop stop-color="#F452FF"/>
<stop offset="1" stop-color="#832BC1"/>
</linearGradient>
<linearGradient id="paint1_linear_2_273" x1="1036.83" y1="100" x2="1036.83" y2="132" gradientUnits="userSpaceOnUse">
<stop stop-color="#FF7602"/>
<stop offset="1" stop-color="#FF3502"/>
</linearGradient>
<clipPath id="clip0_2_273">
<rect width="224" height="46" fill="white" transform="translate(70 100)"/>
</clipPath>
<clipPath id="clip1_2_273">
<rect width="32" height="32" fill="white" transform="translate(972 100)"/>
</clipPath>
<clipPath id="clip2_2_273">
<rect width="32" height="32" fill="white" transform="translate(1070 100)"/>
</clipPath>
<clipPath id="clip3_2_273">
<rect width="32" height="32" fill="white" transform="translate(923 100)"/>
</clipPath>
<clipPath id="clip4_2_273">
<rect width="32" height="32" fill="white" transform="translate(1119 100)"/>
</clipPath>
<clipPath id="clip5_2_273">
<rect width="32" height="32" fill="white" transform="translate(1021 100)"/>
</clipPath>
</defs>
</svg>
